M48
;Layer_Color=6321
;FILE_FORMAT=2:4
INCH
;TYPE=PLATED
T1F00S00C0.0150
T2F00S00C0.0394
;TYPE=NON_PLATED
T3F00S00C0.0197
%
T01
X-011630Y001980
X-009550Y001830
X-007750Y002200
Y002600
X-005940Y002500
X-005520Y002320
X-004980Y002470
X-004560Y002590
X-004150Y002450
X-003750Y002350
X-002800Y002050
X-005080Y001220
X-004100Y002850
X-003650Y003053
X-003750Y005400
X-004340Y005350
X-004680Y005580
X-004980Y005310
X-005320Y005610
X-005940
X-006140Y005240
X-005630Y005270
X-006575Y005425
X-006600Y004090
X-006630Y003670
X-007750Y003400
Y003000
X-008550Y003700
X-009490Y004580
X-010020Y004920
X-010350Y005200
X-011450Y004800
X-010950Y003750
X-010460Y003330
X-010030Y002750
X-008822Y005575
X-008500Y005860
X-007530Y005950
X-004590Y006890
X-003350Y005650
X-011990Y006460
T02
X-013000Y001500
X-012100Y000550
X-011100
X-010100
X-009100
X-008100
X-007050
X-006100
X-003600
X-002600
X-001600
X-000600
Y002000
Y003000
Y004000
Y005000
Y006000
Y007450
X-001600
X-002600
X-003600
X-007100
X-008100
X-009100
X-010100
X-011100
X-012100
X-013000Y006500
T03
X-012354Y003213
Y004787
M30
