G04 Layer_Physical_Order=2*
G04 Layer_Color=16765976*
%FSAX24Y24*%
%MOIN*%
G70*
G01*
G75*
%ADD26C,0.0100*%
%ADD32C,0.0700*%
%ADD33C,0.0270*%
G36*
X-000805Y007802D02*
X-000805Y007797D01*
X-000885Y007735D01*
X-000949Y007652D01*
X-000990Y007554D01*
X-001003Y007450D01*
X-000990Y007346D01*
X-000949Y007248D01*
X-000885Y007165D01*
X-000802Y007101D01*
X-000704Y007060D01*
X-000600Y007047D01*
X-000496Y007060D01*
X-000398Y007101D01*
X-000315Y007165D01*
X-000251Y007248D01*
X-000210Y007346D01*
X-000203Y007401D01*
X-000153Y007398D01*
Y006052D01*
X-000203Y006049D01*
X-000210Y006104D01*
X-000251Y006202D01*
X-000315Y006285D01*
X-000398Y006349D01*
X-000496Y006390D01*
X-000600Y006403D01*
X-000704Y006390D01*
X-000802Y006349D01*
X-000885Y006285D01*
X-000949Y006202D01*
X-000990Y006104D01*
X-001003Y006000D01*
X-000990Y005896D01*
X-000949Y005798D01*
X-000885Y005715D01*
X-000802Y005651D01*
X-000704Y005610D01*
X-000600Y005597D01*
X-000496Y005610D01*
X-000398Y005651D01*
X-000315Y005715D01*
X-000251Y005798D01*
X-000210Y005896D01*
X-000203Y005951D01*
X-000153Y005948D01*
Y005052D01*
X-000203Y005049D01*
X-000210Y005104D01*
X-000251Y005202D01*
X-000315Y005285D01*
X-000398Y005349D01*
X-000496Y005390D01*
X-000600Y005403D01*
X-000704Y005390D01*
X-000802Y005349D01*
X-000885Y005285D01*
X-000949Y005202D01*
X-000990Y005104D01*
X-001003Y005000D01*
X-000990Y004896D01*
X-000949Y004798D01*
X-000885Y004715D01*
X-000802Y004651D01*
X-000704Y004610D01*
X-000600Y004597D01*
X-000496Y004610D01*
X-000398Y004651D01*
X-000315Y004715D01*
X-000251Y004798D01*
X-000210Y004896D01*
X-000203Y004951D01*
X-000153Y004948D01*
Y004052D01*
X-000203Y004049D01*
X-000210Y004104D01*
X-000251Y004202D01*
X-000315Y004285D01*
X-000398Y004349D01*
X-000496Y004390D01*
X-000600Y004403D01*
X-000704Y004390D01*
X-000802Y004349D01*
X-000885Y004285D01*
X-000949Y004202D01*
X-000990Y004104D01*
X-001003Y004000D01*
X-000990Y003896D01*
X-000949Y003798D01*
X-000885Y003715D01*
X-000802Y003651D01*
X-000704Y003610D01*
X-000600Y003597D01*
X-000496Y003610D01*
X-000398Y003651D01*
X-000315Y003715D01*
X-000251Y003798D01*
X-000210Y003896D01*
X-000203Y003952D01*
X-000153Y003948D01*
Y003052D01*
X-000203Y003049D01*
X-000210Y003104D01*
X-000251Y003202D01*
X-000315Y003285D01*
X-000398Y003349D01*
X-000496Y003390D01*
X-000600Y003403D01*
X-000704Y003390D01*
X-000802Y003349D01*
X-000885Y003285D01*
X-000949Y003202D01*
X-000990Y003104D01*
X-001003Y003000D01*
X-000990Y002896D01*
X-000949Y002798D01*
X-000885Y002715D01*
X-000802Y002651D01*
X-000704Y002610D01*
X-000600Y002597D01*
X-000496Y002610D01*
X-000398Y002651D01*
X-000315Y002715D01*
X-000251Y002798D01*
X-000210Y002896D01*
X-000203Y002952D01*
X-000153Y002948D01*
Y002052D01*
X-000203Y002049D01*
X-000210Y002104D01*
X-000251Y002202D01*
X-000315Y002285D01*
X-000398Y002349D01*
X-000496Y002390D01*
X-000600Y002403D01*
X-000704Y002390D01*
X-000802Y002349D01*
X-000885Y002285D01*
X-000949Y002202D01*
X-000990Y002104D01*
X-001003Y002000D01*
X-000990Y001896D01*
X-000949Y001798D01*
X-000885Y001715D01*
X-000802Y001651D01*
X-000704Y001610D01*
X-000600Y001597D01*
X-000496Y001610D01*
X-000398Y001651D01*
X-000315Y001715D01*
X-000251Y001798D01*
X-000210Y001896D01*
X-000203Y001952D01*
X-000153Y001948D01*
Y000602D01*
X-000203Y000599D01*
X-000210Y000654D01*
X-000251Y000752D01*
X-000315Y000835D01*
X-000398Y000899D01*
X-000496Y000940D01*
X-000600Y000953D01*
X-000704Y000940D01*
X-000802Y000899D01*
X-000885Y000835D01*
X-000949Y000752D01*
X-000990Y000654D01*
X-001003Y000550D01*
X-000990Y000446D01*
X-000949Y000348D01*
X-000885Y000265D01*
X-000805Y000203D01*
X-000805Y000198D01*
X-000830Y000153D01*
X-001370D01*
X-001396Y000198D01*
X-001395Y000203D01*
X-001315Y000265D01*
X-001251Y000348D01*
X-001210Y000446D01*
X-001197Y000550D01*
X-001210Y000654D01*
X-001251Y000752D01*
X-001315Y000835D01*
X-001398Y000899D01*
X-001496Y000940D01*
X-001600Y000953D01*
X-001704Y000940D01*
X-001802Y000899D01*
X-001885Y000835D01*
X-001949Y000752D01*
X-001990Y000654D01*
X-002003Y000550D01*
X-001990Y000446D01*
X-001949Y000348D01*
X-001885Y000265D01*
X-001805Y000203D01*
X-001805Y000198D01*
X-001830Y000153D01*
X-002370D01*
X-002395Y000198D01*
X-002395Y000203D01*
X-002315Y000265D01*
X-002251Y000348D01*
X-002210Y000446D01*
X-002197Y000550D01*
X-002210Y000654D01*
X-002251Y000752D01*
X-002315Y000835D01*
X-002398Y000899D01*
X-002496Y000940D01*
X-002600Y000953D01*
X-002704Y000940D01*
X-002802Y000899D01*
X-002885Y000835D01*
X-002949Y000752D01*
X-002990Y000654D01*
X-003003Y000550D01*
X-002990Y000446D01*
X-002949Y000348D01*
X-002885Y000265D01*
X-002805Y000203D01*
X-002805Y000198D01*
X-002830Y000153D01*
X-003370D01*
X-003395Y000198D01*
X-003395Y000203D01*
X-003315Y000265D01*
X-003251Y000348D01*
X-003210Y000446D01*
X-003197Y000550D01*
X-003210Y000654D01*
X-003251Y000752D01*
X-003315Y000835D01*
X-003398Y000899D01*
X-003496Y000940D01*
X-003600Y000953D01*
X-003704Y000940D01*
X-003802Y000899D01*
X-003885Y000835D01*
X-003949Y000752D01*
X-003990Y000654D01*
X-004003Y000550D01*
X-003990Y000446D01*
X-003949Y000348D01*
X-003885Y000265D01*
X-003805Y000203D01*
X-003805Y000198D01*
X-003830Y000153D01*
X-005870D01*
X-005896Y000198D01*
X-005895Y000203D01*
X-005815Y000265D01*
X-005751Y000348D01*
X-005710Y000446D01*
X-005697Y000550D01*
X-005710Y000654D01*
X-005751Y000752D01*
X-005815Y000835D01*
X-005898Y000899D01*
X-005996Y000940D01*
X-006100Y000953D01*
X-006204Y000940D01*
X-006302Y000899D01*
X-006385Y000835D01*
X-006449Y000752D01*
X-006490Y000654D01*
X-006503Y000550D01*
X-006490Y000446D01*
X-006449Y000348D01*
X-006385Y000265D01*
X-006305Y000203D01*
X-006305Y000198D01*
X-006330Y000153D01*
X-006820D01*
X-006845Y000198D01*
X-006845Y000203D01*
X-006765Y000265D01*
X-006701Y000348D01*
X-006660Y000446D01*
X-006647Y000550D01*
X-006660Y000654D01*
X-006701Y000752D01*
X-006765Y000835D01*
X-006848Y000899D01*
X-006946Y000940D01*
X-007050Y000953D01*
X-007154Y000940D01*
X-007252Y000899D01*
X-007335Y000835D01*
X-007399Y000752D01*
X-007440Y000654D01*
X-007453Y000550D01*
X-007440Y000446D01*
X-007399Y000348D01*
X-007335Y000265D01*
X-007255Y000203D01*
X-007255Y000198D01*
X-007280Y000153D01*
X-007870D01*
X-007896Y000198D01*
X-007895Y000203D01*
X-007815Y000265D01*
X-007751Y000348D01*
X-007710Y000446D01*
X-007697Y000550D01*
X-007710Y000654D01*
X-007751Y000752D01*
X-007815Y000835D01*
X-007898Y000899D01*
X-007996Y000940D01*
X-008100Y000953D01*
X-008204Y000940D01*
X-008302Y000899D01*
X-008385Y000835D01*
X-008449Y000752D01*
X-008490Y000654D01*
X-008503Y000550D01*
X-008490Y000446D01*
X-008449Y000348D01*
X-008385Y000265D01*
X-008305Y000203D01*
X-008305Y000198D01*
X-008330Y000153D01*
X-008870D01*
X-008895Y000198D01*
X-008895Y000203D01*
X-008815Y000265D01*
X-008751Y000348D01*
X-008710Y000446D01*
X-008697Y000550D01*
X-008710Y000654D01*
X-008751Y000752D01*
X-008815Y000835D01*
X-008898Y000899D01*
X-008996Y000940D01*
X-009100Y000953D01*
X-009204Y000940D01*
X-009302Y000899D01*
X-009385Y000835D01*
X-009449Y000752D01*
X-009490Y000654D01*
X-009503Y000550D01*
X-009490Y000446D01*
X-009449Y000348D01*
X-009385Y000265D01*
X-009305Y000203D01*
X-009305Y000198D01*
X-009330Y000153D01*
X-009870D01*
X-009895Y000198D01*
X-009895Y000203D01*
X-009815Y000265D01*
X-009751Y000348D01*
X-009710Y000446D01*
X-009697Y000550D01*
X-009710Y000654D01*
X-009751Y000752D01*
X-009815Y000835D01*
X-009898Y000899D01*
X-009996Y000940D01*
X-010100Y000953D01*
X-010204Y000940D01*
X-010302Y000899D01*
X-010385Y000835D01*
X-010449Y000752D01*
X-010490Y000654D01*
X-010503Y000550D01*
X-010490Y000446D01*
X-010449Y000348D01*
X-010385Y000265D01*
X-010305Y000203D01*
X-010305Y000198D01*
X-010330Y000153D01*
X-010870D01*
X-010896Y000198D01*
X-010895Y000203D01*
X-010815Y000265D01*
X-010751Y000348D01*
X-010710Y000446D01*
X-010697Y000550D01*
X-010710Y000654D01*
X-010751Y000752D01*
X-010815Y000835D01*
X-010898Y000899D01*
X-010996Y000940D01*
X-011100Y000953D01*
X-011204Y000940D01*
X-011302Y000899D01*
X-011385Y000835D01*
X-011449Y000752D01*
X-011490Y000654D01*
X-011503Y000550D01*
X-011490Y000446D01*
X-011449Y000348D01*
X-011385Y000265D01*
X-011305Y000203D01*
X-011305Y000198D01*
X-011330Y000153D01*
X-011870D01*
X-011896Y000198D01*
X-011895Y000203D01*
X-011815Y000265D01*
X-011751Y000348D01*
X-011710Y000446D01*
X-011697Y000550D01*
X-011710Y000654D01*
X-011751Y000752D01*
X-011815Y000835D01*
X-011898Y000899D01*
X-011996Y000940D01*
X-012100Y000953D01*
X-012204Y000940D01*
X-012302Y000899D01*
X-012385Y000835D01*
X-012449Y000752D01*
X-012490Y000654D01*
X-012503Y000550D01*
X-012490Y000446D01*
X-012449Y000348D01*
X-012385Y000265D01*
X-012305Y000203D01*
X-012305Y000198D01*
X-012330Y000153D01*
X-012437D01*
X-014347Y002063D01*
Y005937D01*
X-012437Y007847D01*
X-012330D01*
X-012305Y007802D01*
X-012305Y007797D01*
X-012385Y007735D01*
X-012449Y007652D01*
X-012490Y007554D01*
X-012503Y007450D01*
X-012490Y007346D01*
X-012449Y007248D01*
X-012385Y007165D01*
X-012302Y007101D01*
X-012204Y007060D01*
X-012100Y007047D01*
X-011996Y007060D01*
X-011898Y007101D01*
X-011815Y007165D01*
X-011751Y007248D01*
X-011710Y007346D01*
X-011697Y007450D01*
X-011710Y007554D01*
X-011751Y007652D01*
X-011815Y007735D01*
X-011895Y007797D01*
X-011896Y007802D01*
X-011870Y007847D01*
X-011330D01*
X-011305Y007802D01*
X-011305Y007797D01*
X-011385Y007735D01*
X-011449Y007652D01*
X-011490Y007554D01*
X-011503Y007450D01*
X-011490Y007346D01*
X-011449Y007248D01*
X-011385Y007165D01*
X-011302Y007101D01*
X-011204Y007060D01*
X-011100Y007047D01*
X-010996Y007060D01*
X-010898Y007101D01*
X-010815Y007165D01*
X-010751Y007248D01*
X-010710Y007346D01*
X-010697Y007450D01*
X-010710Y007554D01*
X-010751Y007652D01*
X-010815Y007735D01*
X-010895Y007797D01*
X-010896Y007802D01*
X-010870Y007847D01*
X-010330D01*
X-010305Y007802D01*
X-010305Y007797D01*
X-010385Y007735D01*
X-010449Y007652D01*
X-010490Y007554D01*
X-010503Y007450D01*
X-010490Y007346D01*
X-010449Y007248D01*
X-010385Y007165D01*
X-010302Y007101D01*
X-010204Y007060D01*
X-010100Y007047D01*
X-009996Y007060D01*
X-009898Y007101D01*
X-009815Y007165D01*
X-009751Y007248D01*
X-009710Y007346D01*
X-009697Y007450D01*
X-009710Y007554D01*
X-009751Y007652D01*
X-009815Y007735D01*
X-009895Y007797D01*
X-009895Y007802D01*
X-009870Y007847D01*
X-009330D01*
X-009305Y007802D01*
X-009305Y007797D01*
X-009385Y007735D01*
X-009449Y007652D01*
X-009490Y007554D01*
X-009503Y007450D01*
X-009490Y007346D01*
X-009449Y007248D01*
X-009385Y007165D01*
X-009302Y007101D01*
X-009204Y007060D01*
X-009100Y007047D01*
X-008996Y007060D01*
X-008898Y007101D01*
X-008815Y007165D01*
X-008751Y007248D01*
X-008710Y007346D01*
X-008697Y007450D01*
X-008710Y007554D01*
X-008751Y007652D01*
X-008815Y007735D01*
X-008895Y007797D01*
X-008895Y007802D01*
X-008870Y007847D01*
X-008330D01*
X-008305Y007802D01*
X-008305Y007797D01*
X-008385Y007735D01*
X-008449Y007652D01*
X-008490Y007554D01*
X-008503Y007450D01*
X-008490Y007346D01*
X-008449Y007248D01*
X-008385Y007165D01*
X-008302Y007101D01*
X-008204Y007060D01*
X-008100Y007047D01*
X-007996Y007060D01*
X-007898Y007101D01*
X-007815Y007165D01*
X-007751Y007248D01*
X-007710Y007346D01*
X-007697Y007450D01*
X-007710Y007554D01*
X-007751Y007652D01*
X-007815Y007735D01*
X-007895Y007797D01*
X-007896Y007802D01*
X-007870Y007847D01*
X-007330D01*
X-007305Y007802D01*
X-007305Y007797D01*
X-007385Y007735D01*
X-007449Y007652D01*
X-007490Y007554D01*
X-007503Y007450D01*
X-007490Y007346D01*
X-007449Y007248D01*
X-007385Y007165D01*
X-007302Y007101D01*
X-007204Y007060D01*
X-007100Y007047D01*
X-006996Y007060D01*
X-006898Y007101D01*
X-006815Y007165D01*
X-006751Y007248D01*
X-006710Y007346D01*
X-006697Y007450D01*
X-006710Y007554D01*
X-006751Y007652D01*
X-006815Y007735D01*
X-006895Y007797D01*
X-006895Y007802D01*
X-006870Y007847D01*
X-003830D01*
X-003805Y007802D01*
X-003805Y007797D01*
X-003885Y007735D01*
X-003949Y007652D01*
X-003990Y007554D01*
X-004003Y007450D01*
X-003990Y007346D01*
X-003949Y007248D01*
X-003885Y007165D01*
X-003802Y007101D01*
X-003704Y007060D01*
X-003600Y007047D01*
X-003496Y007060D01*
X-003398Y007101D01*
X-003315Y007165D01*
X-003251Y007248D01*
X-003210Y007346D01*
X-003197Y007450D01*
X-003210Y007554D01*
X-003251Y007652D01*
X-003315Y007735D01*
X-003395Y007797D01*
X-003395Y007802D01*
X-003370Y007847D01*
X-002830D01*
X-002805Y007802D01*
X-002805Y007797D01*
X-002885Y007735D01*
X-002949Y007652D01*
X-002990Y007554D01*
X-003003Y007450D01*
X-002990Y007346D01*
X-002949Y007248D01*
X-002885Y007165D01*
X-002802Y007101D01*
X-002704Y007060D01*
X-002600Y007047D01*
X-002496Y007060D01*
X-002398Y007101D01*
X-002315Y007165D01*
X-002251Y007248D01*
X-002210Y007346D01*
X-002197Y007450D01*
X-002210Y007554D01*
X-002251Y007652D01*
X-002315Y007735D01*
X-002395Y007797D01*
X-002395Y007802D01*
X-002370Y007847D01*
X-001830D01*
X-001805Y007802D01*
X-001805Y007797D01*
X-001885Y007735D01*
X-001949Y007652D01*
X-001990Y007554D01*
X-002003Y007450D01*
X-001990Y007346D01*
X-001949Y007248D01*
X-001885Y007165D01*
X-001802Y007101D01*
X-001704Y007060D01*
X-001600Y007047D01*
X-001496Y007060D01*
X-001398Y007101D01*
X-001315Y007165D01*
X-001251Y007248D01*
X-001210Y007346D01*
X-001197Y007450D01*
X-001210Y007554D01*
X-001251Y007652D01*
X-001315Y007735D01*
X-001395Y007797D01*
X-001396Y007802D01*
X-001370Y007847D01*
X-000830D01*
X-000805Y007802D01*
D02*
G37*
%LPC*%
G36*
X-004560Y002779D02*
X-004632Y002764D01*
X-004693Y002723D01*
X-004734Y002662D01*
X-004749Y002590D01*
X-004734Y002518D01*
X-004693Y002457D01*
X-004632Y002416D01*
X-004560Y002401D01*
X-004488Y002416D01*
X-004427Y002457D01*
X-004386Y002518D01*
X-004371Y002590D01*
X-004386Y002662D01*
X-004427Y002723D01*
X-004488Y002764D01*
X-004560Y002779D01*
D02*
G37*
G36*
X-005470Y002550D02*
Y002370D01*
X-005290D01*
X-005299Y002412D01*
X-005351Y002489D01*
X-005428Y002541D01*
X-005470Y002550D01*
D02*
G37*
G36*
X-009800Y002700D02*
X-009980D01*
Y002520D01*
X-009938Y002529D01*
X-009861Y002581D01*
X-009809Y002658D01*
X-009800Y002700D01*
D02*
G37*
G36*
X-010080D02*
X-010260D01*
X-010251Y002658D01*
X-010199Y002581D01*
X-010122Y002529D01*
X-010080Y002520D01*
Y002700D01*
D02*
G37*
G36*
X-004100Y003039D02*
X-004172Y003024D01*
X-004233Y002983D01*
X-004274Y002922D01*
X-004289Y002850D01*
X-004274Y002778D01*
X-004233Y002717D01*
X-004183Y002683D01*
X-004186Y002638D01*
X-004188Y002631D01*
X-004222Y002624D01*
X-004283Y002583D01*
X-004324Y002522D01*
X-004339Y002450D01*
X-004324Y002378D01*
X-004283Y002317D01*
X-004222Y002276D01*
X-004150Y002261D01*
X-004078Y002276D01*
X-004017Y002317D01*
X-003988Y002360D01*
X-003953Y002353D01*
X-003938Y002345D01*
X-003924Y002278D01*
X-003883Y002217D01*
X-003822Y002176D01*
X-003750Y002161D01*
X-003678Y002176D01*
X-003617Y002217D01*
X-003576Y002278D01*
X-003561Y002350D01*
X-003576Y002422D01*
X-003617Y002483D01*
X-003678Y002524D01*
X-003750Y002539D01*
X-003822Y002524D01*
X-003883Y002483D01*
X-003912Y002440D01*
X-003947Y002447D01*
X-003962Y002455D01*
X-003976Y002522D01*
X-004017Y002583D01*
X-004067Y002617D01*
X-004064Y002662D01*
X-004062Y002669D01*
X-004028Y002676D01*
X-003967Y002717D01*
X-003926Y002778D01*
X-003911Y002850D01*
X-003926Y002922D01*
X-003967Y002983D01*
X-004028Y003024D01*
X-004100Y003039D01*
D02*
G37*
G36*
X-002750Y002280D02*
Y002100D01*
X-002570D01*
X-002579Y002142D01*
X-002631Y002219D01*
X-002708Y002271D01*
X-002750Y002280D01*
D02*
G37*
G36*
X-005940Y002689D02*
X-006012Y002674D01*
X-006073Y002633D01*
X-006114Y002572D01*
X-006129Y002500D01*
X-006114Y002428D01*
X-006073Y002367D01*
X-006012Y002326D01*
X-005940Y002311D01*
X-005868Y002326D01*
X-005807Y002367D01*
X-005799Y002378D01*
X-005780Y002370D01*
X-005570D01*
Y002550D01*
X-005612Y002541D01*
X-005689Y002489D01*
X-005708Y002462D01*
X-005755Y002481D01*
X-005751Y002500D01*
X-005766Y002572D01*
X-005807Y002633D01*
X-005868Y002674D01*
X-005940Y002689D01*
D02*
G37*
G36*
X-004980Y002659D02*
X-005052Y002644D01*
X-005113Y002603D01*
X-005154Y002542D01*
X-005169Y002470D01*
X-005154Y002398D01*
X-005113Y002337D01*
X-005052Y002296D01*
X-004980Y002281D01*
X-004908Y002296D01*
X-004847Y002337D01*
X-004806Y002398D01*
X-004791Y002470D01*
X-004806Y002542D01*
X-004847Y002603D01*
X-004908Y002644D01*
X-004980Y002659D01*
D02*
G37*
G36*
X-008550Y003889D02*
X-008622Y003874D01*
X-008683Y003833D01*
X-008724Y003772D01*
X-008739Y003700D01*
X-008724Y003628D01*
X-008683Y003567D01*
X-008622Y003526D01*
X-008550Y003511D01*
X-008478Y003526D01*
X-008417Y003567D01*
X-008376Y003628D01*
X-008361Y003700D01*
X-008376Y003772D01*
X-008417Y003833D01*
X-008478Y003874D01*
X-008550Y003889D01*
D02*
G37*
G36*
X-010460Y003519D02*
X-010532Y003504D01*
X-010593Y003463D01*
X-010634Y003402D01*
X-010649Y003330D01*
X-010634Y003258D01*
X-010593Y003197D01*
X-010532Y003156D01*
X-010460Y003141D01*
X-010388Y003156D01*
X-010327Y003197D01*
X-010286Y003258D01*
X-010271Y003330D01*
X-010286Y003402D01*
X-010327Y003463D01*
X-010388Y003504D01*
X-010460Y003519D01*
D02*
G37*
G36*
X-006600Y004279D02*
X-006672Y004264D01*
X-006733Y004223D01*
X-006774Y004162D01*
X-006789Y004090D01*
X-006774Y004018D01*
X-006733Y003957D01*
X-006672Y003916D01*
X-006647Y003911D01*
X-006647D01*
X-006626Y003907D01*
X-006626Y003906D01*
X-006626Y003901D01*
X-006627Y003899D01*
X-006627Y003893D01*
X-006653Y003854D01*
X-006653D01*
X-006653Y003854D01*
X-006702Y003844D01*
X-006763Y003803D01*
X-006804Y003742D01*
X-006819Y003670D01*
X-006804Y003598D01*
X-006763Y003537D01*
X-006702Y003496D01*
X-006630Y003481D01*
X-006558Y003496D01*
X-006497Y003537D01*
X-006456Y003598D01*
X-006441Y003670D01*
X-006456Y003742D01*
X-006497Y003803D01*
X-006558Y003844D01*
X-006583Y003849D01*
X-006583D01*
X-006604Y003853D01*
X-006604Y003855D01*
X-006604Y003859D01*
X-006603Y003861D01*
X-006603Y003867D01*
X-006577Y003906D01*
X-006577D01*
X-006577Y003906D01*
X-006528Y003916D01*
X-006467Y003957D01*
X-006426Y004018D01*
X-006411Y004090D01*
X-006426Y004162D01*
X-006467Y004223D01*
X-006528Y004264D01*
X-006600Y004279D01*
D02*
G37*
G36*
X-010950Y003939D02*
X-011022Y003924D01*
X-011083Y003883D01*
X-011124Y003822D01*
X-011139Y003750D01*
X-011124Y003678D01*
X-011083Y003617D01*
X-011022Y003576D01*
X-010950Y003561D01*
X-010878Y003576D01*
X-010817Y003617D01*
X-010776Y003678D01*
X-010761Y003750D01*
X-010776Y003822D01*
X-010817Y003883D01*
X-010878Y003924D01*
X-010950Y003939D01*
D02*
G37*
G36*
X-009980Y002980D02*
Y002800D01*
X-009800D01*
X-009809Y002842D01*
X-009861Y002919D01*
X-009938Y002971D01*
X-009980Y002980D01*
D02*
G37*
G36*
X-010080D02*
X-010122Y002971D01*
X-010199Y002919D01*
X-010251Y002842D01*
X-010260Y002800D01*
X-010080D01*
Y002980D01*
D02*
G37*
G36*
X-012354Y003364D02*
X-012411Y003352D01*
X-012461Y003320D01*
X-012493Y003271D01*
X-012505Y003213D01*
X-012493Y003155D01*
X-012461Y003106D01*
X-012411Y003073D01*
X-012354Y003061D01*
X-012296Y003073D01*
X-012247Y003106D01*
X-012214Y003155D01*
X-012202Y003213D01*
X-012214Y003271D01*
X-012247Y003320D01*
X-012296Y003352D01*
X-012354Y003364D01*
D02*
G37*
G36*
X-003650Y003242D02*
X-003722Y003227D01*
X-003783Y003186D01*
X-003824Y003125D01*
X-003839Y003053D01*
X-003824Y002981D01*
X-003783Y002920D01*
X-003722Y002879D01*
X-003650Y002864D01*
X-003578Y002879D01*
X-003517Y002920D01*
X-003476Y002981D01*
X-003461Y003053D01*
X-003476Y003125D01*
X-003517Y003186D01*
X-003578Y003227D01*
X-003650Y003242D01*
D02*
G37*
G36*
X-005030Y001450D02*
Y001270D01*
X-004850D01*
X-004859Y001312D01*
X-004911Y001389D01*
X-004988Y001441D01*
X-005030Y001450D01*
D02*
G37*
G36*
X-005130D02*
X-005172Y001441D01*
X-005249Y001389D01*
X-005301Y001312D01*
X-005310Y001270D01*
X-005130D01*
Y001450D01*
D02*
G37*
G36*
X-012950Y001947D02*
Y001550D01*
X-012553D01*
X-012562Y001617D01*
X-012607Y001727D01*
X-012679Y001821D01*
X-012773Y001893D01*
X-012883Y001938D01*
X-012950Y001947D01*
D02*
G37*
G36*
X-013050D02*
X-013117Y001938D01*
X-013227Y001893D01*
X-013321Y001821D01*
X-013393Y001727D01*
X-013438Y001617D01*
X-013447Y001550D01*
X-013050D01*
Y001947D01*
D02*
G37*
G36*
X-004850Y001170D02*
X-005030D01*
Y000990D01*
X-004988Y000999D01*
X-004911Y001051D01*
X-004859Y001128D01*
X-004850Y001170D01*
D02*
G37*
G36*
X-005130D02*
X-005310D01*
X-005301Y001128D01*
X-005249Y001051D01*
X-005172Y000999D01*
X-005130Y000990D01*
Y001170D01*
D02*
G37*
G36*
X-012553Y001450D02*
X-012950D01*
Y001053D01*
X-012883Y001062D01*
X-012773Y001107D01*
X-012679Y001179D01*
X-012607Y001273D01*
X-012562Y001383D01*
X-012553Y001450D01*
D02*
G37*
G36*
X-013050D02*
X-013447D01*
X-013438Y001383D01*
X-013393Y001273D01*
X-013321Y001179D01*
X-013227Y001107D01*
X-013117Y001062D01*
X-013050Y001053D01*
Y001450D01*
D02*
G37*
G36*
X-005570Y002270D02*
X-005750D01*
X-005741Y002228D01*
X-005689Y002151D01*
X-005612Y002099D01*
X-005570Y002090D01*
Y002270D01*
D02*
G37*
G36*
X-007750Y003589D02*
X-007822Y003574D01*
X-007883Y003533D01*
X-007924Y003472D01*
X-007939Y003400D01*
X-007924Y003328D01*
X-007883Y003267D01*
X-007822Y003226D01*
X-007821Y003225D01*
Y003175D01*
X-007822Y003174D01*
X-007883Y003133D01*
X-007924Y003072D01*
X-007939Y003000D01*
X-007924Y002928D01*
X-007883Y002867D01*
X-007822Y002826D01*
X-007821Y002826D01*
Y002775D01*
X-007822Y002774D01*
X-007883Y002733D01*
X-007924Y002672D01*
X-007939Y002600D01*
X-007924Y002528D01*
X-007883Y002467D01*
X-007822Y002426D01*
X-007821Y002425D01*
Y002375D01*
X-007822Y002374D01*
X-007883Y002333D01*
X-007924Y002272D01*
X-007939Y002200D01*
X-007924Y002128D01*
X-007883Y002067D01*
X-007822Y002026D01*
X-007750Y002011D01*
X-007678Y002026D01*
X-007617Y002067D01*
X-007576Y002128D01*
X-007561Y002200D01*
X-007576Y002272D01*
X-007617Y002333D01*
X-007678Y002374D01*
X-007679Y002375D01*
Y002425D01*
X-007678Y002426D01*
X-007617Y002467D01*
X-007576Y002528D01*
X-007561Y002600D01*
X-007576Y002672D01*
X-007617Y002733D01*
X-007678Y002774D01*
X-007679Y002775D01*
Y002826D01*
X-007678Y002826D01*
X-007617Y002867D01*
X-007576Y002928D01*
X-007561Y003000D01*
X-007576Y003072D01*
X-007617Y003133D01*
X-007678Y003174D01*
X-007679Y003175D01*
Y003225D01*
X-007678Y003226D01*
X-007617Y003267D01*
X-007576Y003328D01*
X-007561Y003400D01*
X-007576Y003472D01*
X-007617Y003533D01*
X-007678Y003574D01*
X-007750Y003589D01*
D02*
G37*
G36*
X-002850Y002280D02*
X-002892Y002271D01*
X-002969Y002219D01*
X-003021Y002142D01*
X-003030Y002100D01*
X-002850D01*
Y002280D01*
D02*
G37*
G36*
X-005290Y002270D02*
X-005470D01*
Y002090D01*
X-005428Y002099D01*
X-005351Y002151D01*
X-005299Y002228D01*
X-005290Y002270D01*
D02*
G37*
G36*
X-011630Y002169D02*
X-011702Y002154D01*
X-011763Y002113D01*
X-011804Y002052D01*
X-011819Y001980D01*
X-011804Y001908D01*
X-011763Y001847D01*
X-011702Y001806D01*
X-011630Y001791D01*
X-011558Y001806D01*
X-011497Y001847D01*
X-011456Y001908D01*
X-011441Y001980D01*
X-011456Y002052D01*
X-011497Y002113D01*
X-011558Y002154D01*
X-011630Y002169D01*
D02*
G37*
G36*
X-009550Y002019D02*
X-009622Y002004D01*
X-009683Y001963D01*
X-009724Y001902D01*
X-009739Y001830D01*
X-009724Y001758D01*
X-009683Y001697D01*
X-009622Y001656D01*
X-009550Y001641D01*
X-009478Y001656D01*
X-009417Y001697D01*
X-009376Y001758D01*
X-009361Y001830D01*
X-009376Y001902D01*
X-009417Y001963D01*
X-009478Y002004D01*
X-009550Y002019D01*
D02*
G37*
G36*
X-002570Y002000D02*
X-002750D01*
Y001820D01*
X-002708Y001829D01*
X-002631Y001881D01*
X-002579Y001958D01*
X-002570Y002000D01*
D02*
G37*
G36*
X-002850D02*
X-003030D01*
X-003021Y001958D01*
X-002969Y001881D01*
X-002892Y001829D01*
X-002850Y001820D01*
Y002000D01*
D02*
G37*
G36*
X-009490Y004769D02*
X-009562Y004754D01*
X-009623Y004713D01*
X-009664Y004652D01*
X-009679Y004580D01*
X-009664Y004508D01*
X-009623Y004447D01*
X-009562Y004406D01*
X-009490Y004391D01*
X-009418Y004406D01*
X-009357Y004447D01*
X-009316Y004508D01*
X-009301Y004580D01*
X-009316Y004652D01*
X-009357Y004713D01*
X-009418Y004754D01*
X-009490Y004769D01*
D02*
G37*
G36*
X-008500Y006049D02*
X-008572Y006034D01*
X-008633Y005993D01*
X-008674Y005932D01*
X-008689Y005860D01*
X-008674Y005788D01*
X-008633Y005727D01*
X-008572Y005686D01*
X-008500Y005671D01*
X-008428Y005686D01*
X-008367Y005727D01*
X-008326Y005788D01*
X-008311Y005860D01*
X-008326Y005932D01*
X-008367Y005993D01*
X-008428Y006034D01*
X-008500Y006049D01*
D02*
G37*
G36*
X-005940Y005799D02*
X-006012Y005784D01*
X-006073Y005743D01*
X-006114Y005682D01*
X-006129Y005610D01*
X-006114Y005538D01*
X-006105Y005524D01*
X-006135Y005479D01*
X-006140Y005480D01*
X-006232Y005461D01*
X-006309Y005409D01*
X-006342Y005361D01*
Y005361D01*
X-006351Y005348D01*
X-006351Y005348D01*
X-006353Y005349D01*
X-006356Y005350D01*
X-006393Y005365D01*
X-006396Y005367D01*
X-006397Y005367D01*
X-006398Y005367D01*
X-006395Y005383D01*
Y005383D01*
X-006386Y005425D01*
X-006401Y005497D01*
X-006441Y005559D01*
X-006503Y005599D01*
X-006575Y005614D01*
X-006647Y005599D01*
X-006708Y005559D01*
X-006749Y005497D01*
X-006763Y005425D01*
X-006749Y005353D01*
X-006708Y005292D01*
X-006647Y005251D01*
X-006575Y005237D01*
X-006503Y005251D01*
X-006441Y005292D01*
X-006420Y005324D01*
X-006420D01*
X-006411Y005337D01*
X-006411Y005337D01*
X-006409Y005336D01*
X-006406Y005335D01*
X-006369Y005319D01*
X-006366Y005318D01*
X-006364Y005317D01*
X-006364Y005317D01*
X-006367Y005302D01*
Y005302D01*
X-006370Y005290D01*
X-005910D01*
X-005919Y005332D01*
X-005946Y005373D01*
X-005945Y005381D01*
X-005921Y005425D01*
X-005868Y005436D01*
X-005807Y005477D01*
X-005766Y005538D01*
X-005751Y005610D01*
X-005766Y005682D01*
X-005807Y005743D01*
X-005868Y005784D01*
X-005940Y005799D01*
D02*
G37*
G36*
X-013000Y006903D02*
X-013104Y006890D01*
X-013202Y006849D01*
X-013285Y006785D01*
X-013349Y006702D01*
X-013390Y006604D01*
X-013403Y006500D01*
X-013390Y006396D01*
X-013349Y006298D01*
X-013285Y006215D01*
X-013202Y006151D01*
X-013104Y006110D01*
X-013000Y006097D01*
X-012896Y006110D01*
X-012798Y006151D01*
X-012715Y006215D01*
X-012651Y006298D01*
X-012610Y006396D01*
X-012597Y006500D01*
X-012610Y006604D01*
X-012651Y006702D01*
X-012715Y006785D01*
X-012798Y006849D01*
X-012896Y006890D01*
X-013000Y006903D01*
D02*
G37*
G36*
X-007530Y006139D02*
X-007602Y006124D01*
X-007663Y006083D01*
X-007704Y006022D01*
X-007719Y005950D01*
X-007704Y005878D01*
X-007663Y005817D01*
X-007602Y005776D01*
X-007530Y005761D01*
X-007458Y005776D01*
X-007397Y005817D01*
X-007356Y005878D01*
X-007341Y005950D01*
X-007356Y006022D01*
X-007397Y006083D01*
X-007458Y006124D01*
X-007530Y006139D01*
D02*
G37*
G36*
X-003700Y005630D02*
Y005450D01*
X-003520D01*
X-003529Y005492D01*
X-003581Y005569D01*
X-003658Y005621D01*
X-003700Y005630D01*
D02*
G37*
G36*
X-003800D02*
X-003842Y005621D01*
X-003919Y005569D01*
X-003971Y005492D01*
X-003980Y005450D01*
X-003800D01*
Y005630D01*
D02*
G37*
G36*
X-004680Y005769D02*
X-004752Y005754D01*
X-004813Y005713D01*
X-004854Y005652D01*
X-004869Y005580D01*
X-004854Y005509D01*
X-004857Y005506D01*
X-004891Y005473D01*
X-004908Y005484D01*
X-004980Y005499D01*
X-005052Y005484D01*
X-005113Y005443D01*
X-005154Y005382D01*
X-005169Y005310D01*
X-005154Y005238D01*
X-005113Y005177D01*
X-005052Y005136D01*
X-004980Y005121D01*
X-004908Y005136D01*
X-004847Y005177D01*
X-004806Y005238D01*
X-004791Y005310D01*
X-004806Y005381D01*
X-004803Y005384D01*
X-004769Y005417D01*
X-004752Y005406D01*
X-004680Y005391D01*
X-004608Y005406D01*
X-004559Y005438D01*
X-004517Y005408D01*
X-004529Y005350D01*
X-004514Y005278D01*
X-004473Y005217D01*
X-004412Y005176D01*
X-004340Y005161D01*
X-004268Y005176D01*
X-004207Y005217D01*
X-004166Y005278D01*
X-004151Y005350D01*
X-004166Y005422D01*
X-004207Y005483D01*
X-004268Y005524D01*
X-004340Y005539D01*
X-004412Y005524D01*
X-004461Y005492D01*
X-004503Y005522D01*
X-004491Y005580D01*
X-004506Y005652D01*
X-004547Y005713D01*
X-004608Y005754D01*
X-004680Y005769D01*
D02*
G37*
G36*
X-003350Y005839D02*
X-003422Y005824D01*
X-003483Y005783D01*
X-003524Y005722D01*
X-003539Y005650D01*
X-003524Y005578D01*
X-003483Y005517D01*
X-003422Y005476D01*
X-003350Y005461D01*
X-003278Y005476D01*
X-003217Y005517D01*
X-003176Y005578D01*
X-003161Y005650D01*
X-003176Y005722D01*
X-003217Y005783D01*
X-003278Y005824D01*
X-003350Y005839D01*
D02*
G37*
G36*
X-004360Y006840D02*
X-004540D01*
Y006660D01*
X-004498Y006669D01*
X-004421Y006721D01*
X-004369Y006798D01*
X-004360Y006840D01*
D02*
G37*
G36*
X-004640D02*
X-004820D01*
X-004811Y006798D01*
X-004759Y006721D01*
X-004682Y006669D01*
X-004640Y006660D01*
Y006840D01*
D02*
G37*
G36*
X-004540Y007120D02*
Y006940D01*
X-004360D01*
X-004369Y006982D01*
X-004421Y007059D01*
X-004498Y007111D01*
X-004540Y007120D01*
D02*
G37*
G36*
X-004640D02*
X-004682Y007111D01*
X-004759Y007059D01*
X-004811Y006982D01*
X-004820Y006940D01*
X-004640D01*
Y007120D01*
D02*
G37*
G36*
X-011760Y006410D02*
X-011940D01*
Y006230D01*
X-011898Y006239D01*
X-011821Y006291D01*
X-011769Y006368D01*
X-011760Y006410D01*
D02*
G37*
G36*
X-012040D02*
X-012220D01*
X-012211Y006368D01*
X-012159Y006291D01*
X-012082Y006239D01*
X-012040Y006230D01*
Y006410D01*
D02*
G37*
G36*
X-011940Y006690D02*
Y006510D01*
X-011760D01*
X-011769Y006552D01*
X-011821Y006629D01*
X-011898Y006681D01*
X-011940Y006690D01*
D02*
G37*
G36*
X-012040D02*
X-012082Y006681D01*
X-012159Y006629D01*
X-012211Y006552D01*
X-012220Y006510D01*
X-012040D01*
Y006690D01*
D02*
G37*
G36*
X-011500Y005030D02*
X-011542Y005021D01*
X-011619Y004969D01*
X-011671Y004892D01*
X-011680Y004850D01*
X-011500D01*
Y005030D01*
D02*
G37*
G36*
X-009790Y004870D02*
X-009970D01*
Y004690D01*
X-009928Y004699D01*
X-009851Y004751D01*
X-009799Y004828D01*
X-009790Y004870D01*
D02*
G37*
G36*
X-010350Y005389D02*
X-010422Y005374D01*
X-010483Y005333D01*
X-010524Y005272D01*
X-010539Y005200D01*
X-010524Y005128D01*
X-010483Y005067D01*
X-010422Y005026D01*
X-010350Y005011D01*
X-010289Y005024D01*
X-010258Y005001D01*
X-010246Y004987D01*
X-010250Y004970D01*
X-010070D01*
Y005150D01*
X-010112Y005141D01*
X-010124Y005133D01*
X-010169Y005163D01*
X-010161Y005200D01*
X-010176Y005272D01*
X-010217Y005333D01*
X-010278Y005374D01*
X-010350Y005389D01*
D02*
G37*
G36*
X-011400Y005030D02*
Y004850D01*
X-011220D01*
X-011229Y004892D01*
X-011281Y004969D01*
X-011358Y005021D01*
X-011400Y005030D01*
D02*
G37*
G36*
X-011220Y004750D02*
X-011400D01*
Y004570D01*
X-011358Y004579D01*
X-011281Y004631D01*
X-011229Y004708D01*
X-011220Y004750D01*
D02*
G37*
G36*
X-011500D02*
X-011680D01*
X-011671Y004708D01*
X-011619Y004631D01*
X-011542Y004579D01*
X-011500Y004570D01*
Y004750D01*
D02*
G37*
G36*
X-010070Y004870D02*
X-010250D01*
X-010241Y004828D01*
X-010189Y004751D01*
X-010112Y004699D01*
X-010070Y004690D01*
Y004870D01*
D02*
G37*
G36*
X-012354Y004939D02*
X-012411Y004927D01*
X-012461Y004894D01*
X-012493Y004845D01*
X-012505Y004787D01*
X-012493Y004729D01*
X-012461Y004680D01*
X-012411Y004648D01*
X-012354Y004636D01*
X-012296Y004648D01*
X-012247Y004680D01*
X-012214Y004729D01*
X-012202Y004787D01*
X-012214Y004845D01*
X-012247Y004894D01*
X-012296Y004927D01*
X-012354Y004939D01*
D02*
G37*
G36*
X-003520Y005350D02*
X-003700D01*
Y005170D01*
X-003658Y005179D01*
X-003581Y005231D01*
X-003529Y005308D01*
X-003520Y005350D01*
D02*
G37*
G36*
X-003800D02*
X-003980D01*
X-003971Y005308D01*
X-003919Y005231D01*
X-003842Y005179D01*
X-003800Y005170D01*
Y005350D01*
D02*
G37*
G36*
X-005320Y005799D02*
X-005392Y005784D01*
X-005453Y005743D01*
X-005494Y005682D01*
X-005509Y005610D01*
X-005494Y005538D01*
X-005453Y005477D01*
X-005392Y005436D01*
X-005320Y005421D01*
X-005248Y005436D01*
X-005187Y005477D01*
X-005146Y005538D01*
X-005131Y005610D01*
X-005146Y005682D01*
X-005187Y005743D01*
X-005248Y005784D01*
X-005320Y005799D01*
D02*
G37*
G36*
X-008822Y005763D02*
X-008894Y005749D01*
X-008955Y005708D01*
X-008996Y005647D01*
X-009010Y005575D01*
X-008996Y005503D01*
X-008955Y005441D01*
X-008894Y005401D01*
X-008822Y005386D01*
X-008750Y005401D01*
X-008688Y005441D01*
X-008647Y005503D01*
X-008633Y005575D01*
X-008647Y005647D01*
X-008688Y005708D01*
X-008750Y005749D01*
X-008822Y005763D01*
D02*
G37*
G36*
X-006190Y005190D02*
X-006370D01*
X-006361Y005148D01*
X-006309Y005071D01*
X-006232Y005019D01*
X-006190Y005010D01*
Y005190D01*
D02*
G37*
G36*
X-009970Y005150D02*
Y004970D01*
X-009790D01*
X-009799Y005012D01*
X-009851Y005089D01*
X-009928Y005141D01*
X-009970Y005150D01*
D02*
G37*
G36*
X-005630Y005459D02*
X-005702Y005444D01*
X-005763Y005403D01*
X-005804Y005342D01*
X-005819Y005270D01*
X-005804Y005198D01*
X-005763Y005137D01*
X-005702Y005096D01*
X-005630Y005081D01*
X-005558Y005096D01*
X-005497Y005137D01*
X-005456Y005198D01*
X-005441Y005270D01*
X-005456Y005342D01*
X-005497Y005403D01*
X-005558Y005444D01*
X-005630Y005459D01*
D02*
G37*
G36*
X-005910Y005190D02*
X-006090D01*
Y005010D01*
X-006048Y005019D01*
X-005971Y005071D01*
X-005919Y005148D01*
X-005910Y005190D01*
D02*
G37*
%LPD*%
D26*
X-014500Y002000D02*
X-012500Y000000D01*
X000000D01*
Y008000D01*
X-012500D02*
X000000D01*
X-014500Y006000D02*
X-012500Y008000D01*
X-014500Y002000D02*
Y006000D01*
D32*
X-013000Y001500D02*
D03*
D33*
X-010020Y004920D02*
D03*
X-011990Y006460D02*
D03*
X-010030Y002750D02*
D03*
X-002800Y002050D02*
D03*
X-004590Y006890D02*
D03*
X-003750Y005400D02*
D03*
X-011450Y004800D02*
D03*
X-006140Y005240D02*
D03*
X-005520Y002320D02*
D03*
X-005080Y001220D02*
D03*
M02*
