G04 Layer_Color=15132400*
%FSAX24Y24*%
%MOIN*%
G70*
G01*
G75*
%ADD26C,0.0100*%
%ADD34C,0.0098*%
%ADD35C,0.0080*%
%ADD36C,0.0050*%
G36*
X-005155Y007704D02*
X-005148Y007703D01*
X-005141Y007702D01*
X-005132Y007701D01*
X-005122Y007700D01*
X-005112Y007697D01*
X-005102Y007694D01*
X-005090Y007690D01*
X-005079Y007687D01*
X-005067Y007681D01*
X-005056Y007676D01*
X-005045Y007669D01*
X-005034Y007661D01*
X-005033Y007661D01*
X-005032Y007660D01*
X-005030Y007658D01*
X-005027Y007656D01*
X-005020Y007649D01*
X-005012Y007640D01*
X-005001Y007629D01*
X-004991Y007615D01*
X-004981Y007600D01*
X-004971Y007583D01*
Y007582D01*
X-004969Y007581D01*
X-004969Y007578D01*
X-004967Y007574D01*
X-004966Y007571D01*
X-004964Y007565D01*
X-004961Y007560D01*
X-004959Y007553D01*
X-004955Y007539D01*
X-004951Y007523D01*
X-004949Y007506D01*
X-004947Y007488D01*
Y007487D01*
Y007484D01*
Y007481D01*
X-004948Y007476D01*
X-004949Y007469D01*
X-004950Y007462D01*
X-004951Y007455D01*
X-004953Y007446D01*
X-004956Y007436D01*
X-004959Y007426D01*
X-004962Y007416D01*
X-004967Y007405D01*
X-004973Y007394D01*
X-004979Y007383D01*
X-004986Y007372D01*
X-004994Y007362D01*
X-004995Y007361D01*
X-004996Y007360D01*
X-004998Y007357D01*
X-005001Y007354D01*
X-005005Y007350D01*
X-005010Y007346D01*
X-005015Y007341D01*
X-005021Y007336D01*
X-005028Y007330D01*
X-005036Y007324D01*
X-005045Y007319D01*
X-005054Y007313D01*
X-005063Y007308D01*
X-005074Y007303D01*
X-005096Y007294D01*
X-005097D01*
X-005098Y007293D01*
X-005100Y007293D01*
X-005103Y007292D01*
X-005107Y007291D01*
X-005111Y007290D01*
X-005121Y007288D01*
X-005133Y007286D01*
X-005146Y007284D01*
X-005161Y007283D01*
X-005175Y007282D01*
X-005180D01*
X-005184Y007283D01*
X-005189D01*
X-005194Y007284D01*
X-005200Y007284D01*
X-005207Y007285D01*
X-005222Y007287D01*
X-005238Y007291D01*
X-005256Y007296D01*
X-005274Y007303D01*
X-005275Y007304D01*
X-005277Y007304D01*
X-005279Y007306D01*
X-005283Y007308D01*
X-005288Y007311D01*
X-005293Y007314D01*
X-005306Y007322D01*
X-005321Y007333D01*
X-005335Y007347D01*
X-005350Y007363D01*
X-005363Y007381D01*
X-005363Y007382D01*
X-005364Y007384D01*
X-005365Y007387D01*
X-005367Y007390D01*
X-005370Y007395D01*
X-005373Y007401D01*
X-005375Y007407D01*
X-005378Y007414D01*
X-005381Y007422D01*
X-005384Y007431D01*
X-005389Y007450D01*
X-005393Y007471D01*
X-005393Y007482D01*
X-005394Y007493D01*
Y007494D01*
Y007497D01*
Y007501D01*
X-005393Y007505D01*
X-005393Y007512D01*
X-005392Y007519D01*
X-005391Y007527D01*
X-005389Y007536D01*
X-005384Y007555D01*
X-005381Y007565D01*
X-005377Y007576D01*
X-005373Y007587D01*
X-005367Y007598D01*
X-005361Y007608D01*
X-005354Y007619D01*
X-005353Y007619D01*
X-005352Y007620D01*
X-005350Y007623D01*
X-005347Y007626D01*
X-005343Y007630D01*
X-005339Y007635D01*
X-005334Y007640D01*
X-005328Y007645D01*
X-005322Y007651D01*
X-005315Y007657D01*
X-005307Y007663D01*
X-005298Y007668D01*
X-005279Y007679D01*
X-005258Y007689D01*
X-005257D01*
X-005256Y007690D01*
X-005254Y007690D01*
X-005251Y007692D01*
X-005247Y007693D01*
X-005242Y007694D01*
X-005237Y007696D01*
X-005231Y007697D01*
X-005218Y007700D01*
X-005203Y007702D01*
X-005186Y007704D01*
X-005168Y007705D01*
X-005160D01*
X-005155Y007704D01*
D02*
G37*
G36*
X-006107Y007706D02*
X-006101Y007705D01*
X-006093Y007704D01*
X-006085Y007701D01*
X-006075Y007697D01*
X-006065Y007691D01*
X-006054Y007683D01*
X-006054Y007683D01*
X-006052Y007681D01*
X-006050Y007679D01*
X-006047Y007676D01*
X-006043Y007671D01*
X-006038Y007665D01*
X-006033Y007657D01*
X-006026Y007648D01*
X-006019Y007637D01*
X-006010Y007623D01*
X-006001Y007608D01*
X-005991Y007591D01*
X-005980Y007571D01*
X-005975Y007560D01*
X-005969Y007548D01*
X-005963Y007536D01*
X-005956Y007523D01*
X-005950Y007510D01*
X-005943Y007495D01*
X-005887Y007375D01*
X-005886Y007374D01*
X-005886Y007372D01*
X-005884Y007369D01*
X-005882Y007366D01*
X-005878Y007359D01*
X-005875Y007355D01*
X-005873Y007353D01*
X-005872Y007352D01*
X-005870Y007350D01*
X-005864Y007348D01*
X-005857Y007346D01*
X-005857D01*
X-005854Y007345D01*
X-005851Y007344D01*
X-005846Y007342D01*
X-005842Y007339D01*
X-005839Y007335D01*
X-005836Y007330D01*
X-005836Y007324D01*
Y007324D01*
X-005836Y007321D01*
X-005837Y007317D01*
X-005839Y007312D01*
X-005842Y007307D01*
X-005847Y007302D01*
X-005853Y007297D01*
X-005862Y007293D01*
X-005864Y007293D01*
X-005865D01*
X-005868Y007292D01*
X-005870Y007291D01*
X-005873Y007291D01*
X-005878Y007289D01*
X-005883Y007289D01*
X-005888Y007288D01*
X-005895Y007287D01*
X-005902Y007286D01*
X-005910Y007285D01*
X-005918Y007285D01*
X-005927D01*
X-005937Y007284D01*
X-005965D01*
X-005971Y007285D01*
X-005986D01*
X-006002Y007285D01*
X-006019Y007287D01*
X-006034Y007288D01*
X-006041Y007289D01*
X-006048Y007290D01*
X-006048D01*
X-006050Y007291D01*
X-006053Y007291D01*
X-006056Y007292D01*
X-006064Y007295D01*
X-006072Y007300D01*
X-006072Y007300D01*
X-006073Y007301D01*
X-006074Y007303D01*
X-006076Y007306D01*
X-006079Y007312D01*
X-006079Y007316D01*
X-006080Y007320D01*
Y007320D01*
Y007321D01*
X-006079Y007325D01*
X-006078Y007330D01*
X-006076Y007333D01*
X-006075Y007334D01*
X-006072Y007337D01*
X-006069Y007338D01*
X-006067Y007339D01*
X-006063Y007341D01*
X-006058Y007342D01*
X-006057D01*
X-006056Y007344D01*
X-006051Y007346D01*
X-006046Y007352D01*
X-006045Y007355D01*
X-006045Y007359D01*
Y007359D01*
X-006045Y007362D01*
X-006046Y007365D01*
X-006048Y007369D01*
X-006050Y007374D01*
X-006055Y007377D01*
X-006061Y007381D01*
X-006068Y007383D01*
X-006070D01*
X-006073Y007383D01*
X-006079Y007384D01*
X-006087Y007385D01*
X-006098D01*
X-006111Y007385D01*
X-006125Y007386D01*
X-006155D01*
X-006162Y007385D01*
X-006171Y007385D01*
X-006178Y007384D01*
X-006184Y007383D01*
X-006187Y007382D01*
X-006189Y007381D01*
X-006190Y007381D01*
X-006192Y007379D01*
X-006194Y007376D01*
X-006197Y007370D01*
Y007370D01*
X-006198Y007369D01*
X-006199Y007366D01*
X-006200Y007361D01*
X-006201Y007355D01*
Y007354D01*
X-006200Y007352D01*
X-006199Y007349D01*
X-006198Y007347D01*
X-006197Y007346D01*
X-006195Y007346D01*
X-006193Y007344D01*
X-006190Y007344D01*
X-006186Y007342D01*
X-006182Y007341D01*
X-006181D01*
X-006179Y007339D01*
X-006176Y007338D01*
X-006173Y007336D01*
X-006170Y007333D01*
X-006166Y007330D01*
X-006164Y007325D01*
X-006164Y007319D01*
Y007319D01*
Y007318D01*
X-006165Y007314D01*
X-006166Y007311D01*
X-006168Y007308D01*
X-006171Y007305D01*
X-006174Y007302D01*
X-006179Y007298D01*
X-006184Y007295D01*
X-006192Y007293D01*
X-006199Y007289D01*
X-006209Y007287D01*
X-006221Y007285D01*
X-006234Y007285D01*
X-006249Y007284D01*
X-006260D01*
X-006265Y007285D01*
X-006275D01*
X-006287Y007285D01*
X-006299Y007287D01*
X-006310Y007288D01*
X-006319Y007290D01*
X-006320Y007291D01*
X-006323Y007291D01*
X-006326Y007293D01*
X-006330Y007296D01*
X-006334Y007300D01*
X-006337Y007304D01*
X-006339Y007311D01*
X-006340Y007318D01*
Y007319D01*
Y007319D01*
X-006339Y007323D01*
X-006338Y007328D01*
X-006335Y007332D01*
X-006335Y007333D01*
X-006332Y007335D01*
X-006326Y007338D01*
X-006323Y007340D01*
X-006319Y007341D01*
X-006319Y007342D01*
X-006316Y007342D01*
X-006313Y007344D01*
X-006308Y007346D01*
X-006299Y007352D01*
X-006294Y007356D01*
X-006290Y007361D01*
X-006289Y007361D01*
X-006288Y007363D01*
X-006286Y007366D01*
X-006282Y007372D01*
X-006278Y007379D01*
X-006274Y007388D01*
X-006268Y007400D01*
X-006265Y007406D01*
X-006262Y007413D01*
X-006219Y007506D01*
Y007506D01*
X-006218Y007508D01*
X-006218Y007510D01*
X-006216Y007514D01*
X-006214Y007518D01*
X-006212Y007523D01*
X-006207Y007534D01*
X-006201Y007547D01*
X-006197Y007559D01*
X-006192Y007571D01*
X-006188Y007581D01*
X-006188Y007582D01*
X-006187Y007585D01*
X-006186Y007590D01*
X-006184Y007596D01*
X-006183Y007604D01*
X-006181Y007613D01*
X-006181Y007622D01*
X-006180Y007631D01*
Y007632D01*
Y007635D01*
Y007639D01*
X-006179Y007644D01*
X-006179Y007656D01*
X-006178Y007661D01*
X-006177Y007666D01*
Y007666D01*
X-006177Y007668D01*
X-006176Y007670D01*
X-006175Y007672D01*
X-006170Y007679D01*
X-006164Y007686D01*
X-006163Y007687D01*
X-006161Y007689D01*
X-006156Y007692D01*
X-006150Y007696D01*
X-006142Y007700D01*
X-006133Y007703D01*
X-006124Y007706D01*
X-006112Y007707D01*
X-006111D01*
X-006107Y007706D01*
D02*
G37*
G36*
X-005474Y007705D02*
X-005469Y007704D01*
X-005463Y007701D01*
X-005455Y007697D01*
X-005448Y007690D01*
X-005444Y007687D01*
X-005439Y007682D01*
X-005435Y007676D01*
X-005431Y007670D01*
Y007669D01*
X-005430Y007668D01*
X-005429Y007666D01*
X-005427Y007664D01*
X-005424Y007657D01*
X-005419Y007647D01*
X-005415Y007636D01*
X-005411Y007624D01*
X-005409Y007611D01*
X-005408Y007596D01*
Y007595D01*
Y007592D01*
X-005409Y007587D01*
X-005410Y007582D01*
X-005412Y007576D01*
X-005415Y007569D01*
X-005419Y007563D01*
X-005424Y007558D01*
X-005424Y007558D01*
X-005426Y007557D01*
X-005428Y007556D01*
X-005432Y007554D01*
X-005436Y007552D01*
X-005441Y007551D01*
X-005447Y007551D01*
X-005453Y007550D01*
X-005455D01*
X-005459Y007551D01*
X-005462Y007551D01*
X-005471Y007554D01*
X-005476Y007556D01*
X-005480Y007558D01*
X-005481Y007559D01*
X-005482Y007560D01*
X-005485Y007562D01*
X-005487Y007565D01*
X-005490Y007569D01*
X-005494Y007574D01*
X-005499Y007580D01*
X-005503Y007587D01*
X-005503Y007588D01*
X-005504Y007591D01*
X-005506Y007594D01*
X-005509Y007598D01*
X-005513Y007606D01*
X-005516Y007609D01*
X-005518Y007611D01*
X-005520Y007612D01*
X-005522Y007615D01*
X-005527Y007617D01*
X-005532Y007617D01*
X-005534D01*
X-005538Y007616D01*
X-005541Y007615D01*
X-005544Y007613D01*
X-005546Y007611D01*
X-005548Y007608D01*
Y007607D01*
X-005549Y007606D01*
X-005549Y007604D01*
X-005550Y007600D01*
X-005551Y007596D01*
X-005552Y007591D01*
X-005553Y007585D01*
Y007578D01*
Y007411D01*
Y007409D01*
Y007407D01*
Y007402D01*
X-005552Y007396D01*
X-005551Y007385D01*
X-005549Y007379D01*
X-005548Y007374D01*
Y007373D01*
X-005546Y007372D01*
X-005545Y007370D01*
X-005543Y007367D01*
X-005540Y007364D01*
X-005537Y007361D01*
X-005533Y007358D01*
X-005527Y007355D01*
X-005527D01*
X-005525Y007354D01*
X-005522Y007353D01*
X-005518Y007352D01*
X-005511Y007347D01*
X-005508Y007345D01*
X-005505Y007342D01*
X-005505Y007341D01*
X-005502Y007338D01*
X-005500Y007333D01*
X-005500Y007326D01*
Y007325D01*
X-005500Y007322D01*
X-005501Y007319D01*
X-005503Y007314D01*
X-005507Y007309D01*
X-005512Y007303D01*
X-005519Y007298D01*
X-005524Y007296D01*
X-005529Y007294D01*
X-005530Y007293D01*
X-005532D01*
X-005534Y007293D01*
X-005537Y007292D01*
X-005541Y007291D01*
X-005546Y007290D01*
X-005551Y007289D01*
X-005557Y007288D01*
X-005563Y007287D01*
X-005570Y007287D01*
X-005578Y007285D01*
X-005587Y007285D01*
X-005596D01*
X-005606Y007284D01*
X-005630D01*
X-005636Y007285D01*
X-005643D01*
X-005651Y007285D01*
X-005659D01*
X-005677Y007287D01*
X-005695Y007289D01*
X-005713Y007292D01*
X-005721Y007294D01*
X-005728Y007296D01*
X-005729Y007296D01*
X-005732Y007298D01*
X-005737Y007300D01*
X-005743Y007304D01*
X-005748Y007308D01*
X-005753Y007313D01*
X-005756Y007320D01*
X-005757Y007324D01*
X-005757Y007328D01*
Y007329D01*
Y007330D01*
X-005757Y007333D01*
X-005756Y007335D01*
X-005755Y007339D01*
X-005753Y007342D01*
X-005750Y007345D01*
X-005747Y007348D01*
X-005746D01*
X-005745Y007348D01*
X-005743Y007349D01*
X-005741Y007350D01*
X-005737Y007352D01*
X-005732Y007353D01*
X-005726Y007355D01*
X-005725D01*
X-005724Y007355D01*
X-005719Y007357D01*
X-005714Y007361D01*
X-005712Y007364D01*
X-005710Y007367D01*
Y007368D01*
X-005709Y007369D01*
X-005709Y007372D01*
X-005708Y007375D01*
X-005706Y007380D01*
X-005705Y007386D01*
X-005704Y007394D01*
X-005703Y007403D01*
Y007404D01*
X-005702Y007407D01*
Y007413D01*
X-005702Y007421D01*
X-005701Y007431D01*
X-005700Y007444D01*
Y007452D01*
X-005699Y007460D01*
Y007469D01*
X-005698Y007478D01*
Y007479D01*
Y007481D01*
Y007483D01*
X-005698Y007486D01*
Y007491D01*
Y007496D01*
X-005697Y007508D01*
Y007523D01*
X-005697Y007538D01*
Y007553D01*
Y007568D01*
Y007569D01*
Y007573D01*
Y007577D01*
X-005697Y007583D01*
X-005698Y007596D01*
X-005700Y007602D01*
X-005701Y007606D01*
Y007607D01*
X-005702Y007608D01*
X-005704Y007612D01*
X-005708Y007615D01*
X-005711Y007617D01*
X-005714Y007617D01*
X-005716D01*
X-005719Y007617D01*
X-005721Y007615D01*
X-005724Y007613D01*
X-005728Y007610D01*
X-005733Y007606D01*
X-005737Y007601D01*
Y007600D01*
X-005737Y007600D01*
X-005740Y007596D01*
X-005744Y007591D01*
X-005748Y007585D01*
X-005754Y007578D01*
X-005759Y007571D01*
X-005765Y007565D01*
X-005770Y007561D01*
X-005770Y007560D01*
X-005772Y007559D01*
X-005775Y007557D01*
X-005779Y007555D01*
X-005783Y007553D01*
X-005789Y007551D01*
X-005794Y007550D01*
X-005799Y007549D01*
X-005802D01*
X-005805Y007550D01*
X-005808Y007551D01*
X-005813Y007552D01*
X-005817Y007554D01*
X-005822Y007557D01*
X-005825Y007561D01*
X-005826Y007562D01*
X-005827Y007563D01*
X-005829Y007566D01*
X-005831Y007569D01*
X-005833Y007574D01*
X-005834Y007579D01*
X-005835Y007585D01*
X-005836Y007592D01*
Y007593D01*
Y007595D01*
X-005835Y007599D01*
X-005835Y007604D01*
X-005834Y007609D01*
X-005833Y007617D01*
X-005831Y007624D01*
X-005828Y007632D01*
X-005827Y007633D01*
X-005827Y007636D01*
X-005825Y007641D01*
X-005822Y007646D01*
X-005819Y007652D01*
X-005815Y007659D01*
X-005805Y007674D01*
Y007674D01*
X-005804Y007675D01*
X-005802Y007678D01*
X-005797Y007683D01*
X-005791Y007689D01*
X-005785Y007694D01*
X-005777Y007700D01*
X-005769Y007703D01*
X-005765Y007704D01*
X-005757D01*
X-005752Y007703D01*
X-005747Y007702D01*
X-005746D01*
X-005744Y007701D01*
X-005741Y007701D01*
X-005737Y007700D01*
X-005729Y007699D01*
X-005721Y007698D01*
X-005719D01*
X-005717Y007697D01*
X-005713D01*
X-005706Y007696D01*
X-005535D01*
X-005531Y007697D01*
X-005524Y007698D01*
X-005517Y007699D01*
X-005510Y007700D01*
X-005494Y007703D01*
X-005493D01*
X-005492Y007704D01*
X-005489Y007705D01*
X-005483Y007705D01*
X-005478Y007706D01*
X-005477D01*
X-005474Y007705D01*
D02*
G37*
G36*
X-004475Y007702D02*
X-004469Y007701D01*
X-004461Y007701D01*
X-004446Y007698D01*
X-004430Y007693D01*
X-004423Y007690D01*
X-004417Y007687D01*
X-004412Y007682D01*
X-004408Y007677D01*
X-004404Y007671D01*
X-004404Y007664D01*
Y007663D01*
Y007663D01*
X-004404Y007659D01*
X-004405Y007655D01*
X-004407Y007650D01*
X-004408Y007650D01*
X-004410Y007647D01*
X-004414Y007643D01*
X-004417Y007640D01*
X-004421Y007637D01*
X-004421Y007637D01*
X-004423Y007635D01*
X-004425Y007633D01*
X-004428Y007630D01*
X-004431Y007626D01*
X-004434Y007620D01*
X-004436Y007615D01*
X-004438Y007608D01*
Y007607D01*
Y007606D01*
X-004439Y007604D01*
X-004439Y007600D01*
Y007596D01*
X-004440Y007591D01*
X-004441Y007585D01*
X-004441Y007580D01*
X-004442Y007573D01*
X-004443Y007565D01*
X-004443Y007548D01*
X-004445Y007528D01*
Y007507D01*
Y007506D01*
Y007504D01*
Y007500D01*
Y007494D01*
Y007488D01*
X-004444Y007480D01*
Y007471D01*
Y007462D01*
X-004443Y007452D01*
X-004443Y007442D01*
X-004441Y007419D01*
X-004440Y007396D01*
X-004437Y007374D01*
Y007374D01*
X-004437Y007372D01*
Y007370D01*
X-004436Y007366D01*
X-004434Y007360D01*
X-004434Y007357D01*
X-004432Y007355D01*
X-004432Y007354D01*
X-004430Y007353D01*
X-004428Y007351D01*
X-004426Y007349D01*
X-004423Y007346D01*
X-004418Y007343D01*
X-004413Y007340D01*
X-004412D01*
X-004411Y007339D01*
X-004407Y007335D01*
X-004404Y007329D01*
X-004402Y007325D01*
X-004402Y007320D01*
Y007320D01*
X-004402Y007317D01*
X-004403Y007313D01*
X-004405Y007309D01*
X-004408Y007304D01*
X-004414Y007300D01*
X-004421Y007295D01*
X-004425Y007293D01*
X-004430Y007291D01*
X-004430D01*
X-004432Y007291D01*
X-004435Y007290D01*
X-004439Y007289D01*
X-004443Y007288D01*
X-004448Y007287D01*
X-004460Y007285D01*
X-004463D01*
X-004467Y007285D01*
X-004479D01*
X-004487Y007284D01*
X-004521D01*
X-004526Y007285D01*
X-004537D01*
X-004549Y007285D01*
X-004561Y007287D01*
X-004573Y007289D01*
X-004583Y007291D01*
X-004585Y007291D01*
X-004588Y007292D01*
X-004592Y007294D01*
X-004597Y007297D01*
X-004602Y007301D01*
X-004607Y007306D01*
X-004610Y007311D01*
X-004610Y007315D01*
X-004611Y007318D01*
Y007319D01*
Y007319D01*
X-004610Y007322D01*
X-004610Y007326D01*
X-004608Y007330D01*
X-004607Y007331D01*
X-004606Y007332D01*
X-004604Y007333D01*
X-004601Y007336D01*
X-004598Y007339D01*
X-004594Y007342D01*
X-004589Y007346D01*
X-004588Y007347D01*
X-004588Y007348D01*
X-004587Y007350D01*
X-004585Y007352D01*
X-004583Y007355D01*
X-004581Y007359D01*
X-004580Y007365D01*
X-004579Y007370D01*
Y007371D01*
X-004578Y007374D01*
X-004577Y007378D01*
X-004577Y007385D01*
Y007393D01*
X-004576Y007404D01*
X-004575Y007416D01*
Y007431D01*
Y007433D01*
Y007435D01*
Y007439D01*
Y007444D01*
X-004577Y007455D01*
X-004577Y007459D01*
X-004578Y007462D01*
Y007463D01*
X-004579Y007464D01*
X-004580Y007466D01*
X-004583Y007469D01*
X-004585Y007470D01*
X-004588D01*
X-004592Y007469D01*
X-004595Y007468D01*
X-004598Y007465D01*
X-004600Y007462D01*
X-004603Y007458D01*
X-004604Y007458D01*
X-004605Y007457D01*
X-004607Y007453D01*
X-004609Y007449D01*
X-004612Y007442D01*
X-004616Y007434D01*
X-004622Y007425D01*
X-004627Y007413D01*
X-004662Y007333D01*
X-004663Y007332D01*
X-004664Y007330D01*
X-004666Y007326D01*
X-004668Y007322D01*
X-004673Y007313D01*
X-004675Y007309D01*
X-004677Y007306D01*
X-004679Y007304D01*
X-004681Y007302D01*
X-004685Y007300D01*
X-004687Y007299D01*
X-004690Y007298D01*
X-004691D01*
X-004693Y007299D01*
X-004697Y007301D01*
X-004701Y007304D01*
X-004702Y007306D01*
X-004703Y007307D01*
X-004704Y007309D01*
X-004706Y007312D01*
X-004709Y007317D01*
X-004712Y007323D01*
X-004717Y007330D01*
X-004717Y007331D01*
X-004719Y007334D01*
X-004721Y007339D01*
X-004723Y007344D01*
X-004726Y007350D01*
X-004730Y007357D01*
X-004736Y007371D01*
X-004775Y007459D01*
X-004776Y007460D01*
X-004776Y007462D01*
X-004778Y007465D01*
X-004780Y007469D01*
X-004783Y007472D01*
X-004785Y007475D01*
X-004789Y007477D01*
X-004792Y007478D01*
X-004793D01*
X-004795Y007477D01*
X-004797Y007476D01*
X-004799Y007474D01*
X-004800Y007471D01*
X-004802Y007467D01*
X-004803Y007462D01*
Y007461D01*
Y007460D01*
Y007458D01*
Y007456D01*
X-004804Y007449D01*
Y007440D01*
X-004804Y007431D01*
Y007420D01*
X-004805Y007397D01*
Y007396D01*
Y007396D01*
Y007392D01*
Y007387D01*
X-004804Y007380D01*
Y007373D01*
X-004804Y007366D01*
X-004803Y007360D01*
X-004802Y007355D01*
X-004801Y007354D01*
X-004800Y007351D01*
X-004798Y007348D01*
X-004796Y007345D01*
X-004796Y007344D01*
X-004795Y007344D01*
X-004793Y007343D01*
X-004790Y007341D01*
X-004787Y007340D01*
X-004783Y007337D01*
X-004778Y007335D01*
X-004777D01*
X-004776Y007333D01*
X-004772Y007331D01*
X-004769Y007325D01*
X-004769Y007322D01*
X-004768Y007317D01*
Y007317D01*
Y007316D01*
X-004769Y007312D01*
X-004771Y007309D01*
X-004772Y007307D01*
X-004775Y007304D01*
X-004778Y007301D01*
X-004783Y007298D01*
X-004789Y007295D01*
X-004796Y007292D01*
X-004804Y007289D01*
X-004814Y007287D01*
X-004825Y007285D01*
X-004839Y007285D01*
X-004853Y007284D01*
X-004860D01*
X-004864Y007285D01*
X-004870Y007285D01*
X-004876Y007286D01*
X-004889Y007288D01*
X-004903Y007292D01*
X-004909Y007295D01*
X-004914Y007298D01*
X-004919Y007301D01*
X-004922Y007306D01*
X-004925Y007310D01*
X-004925Y007316D01*
Y007317D01*
Y007317D01*
X-004925Y007320D01*
X-004924Y007325D01*
X-004922Y007328D01*
X-004922Y007329D01*
X-004920Y007330D01*
X-004918Y007331D01*
X-004916Y007333D01*
X-004912Y007335D01*
X-004908Y007337D01*
X-004903Y007339D01*
X-004902D01*
X-004901Y007340D01*
X-004897Y007342D01*
X-004892Y007346D01*
X-004890Y007349D01*
X-004889Y007352D01*
Y007352D01*
X-004888Y007353D01*
X-004888Y007355D01*
X-004887Y007358D01*
X-004887Y007363D01*
X-004885Y007368D01*
X-004885Y007374D01*
X-004883Y007382D01*
Y007383D01*
X-004883Y007387D01*
Y007392D01*
X-004882Y007401D01*
X-004881Y007405D01*
Y007411D01*
X-004881Y007418D01*
X-004880Y007425D01*
Y007433D01*
X-004879Y007441D01*
Y007450D01*
X-004879Y007460D01*
Y007460D01*
Y007462D01*
Y007465D01*
X-004878Y007469D01*
Y007473D01*
Y007479D01*
X-004877Y007485D01*
Y007492D01*
X-004877Y007506D01*
Y007522D01*
X-004876Y007538D01*
Y007553D01*
Y007554D01*
Y007555D01*
Y007558D01*
Y007561D01*
Y007565D01*
X-004877Y007569D01*
Y007580D01*
X-004878Y007591D01*
X-004879Y007602D01*
X-004881Y007611D01*
X-004882Y007615D01*
X-004883Y007619D01*
X-004884Y007620D01*
X-004885Y007622D01*
X-004887Y007625D01*
X-004890Y007628D01*
X-004890Y007628D01*
X-004892Y007630D01*
X-004897Y007633D01*
X-004903Y007636D01*
X-004903Y007637D01*
X-004906Y007638D01*
X-004909Y007640D01*
X-004913Y007643D01*
X-004917Y007646D01*
X-004920Y007651D01*
X-004923Y007656D01*
X-004923Y007662D01*
Y007663D01*
Y007664D01*
X-004923Y007666D01*
X-004922Y007668D01*
X-004920Y007674D01*
X-004918Y007678D01*
X-004916Y007681D01*
X-004915Y007681D01*
X-004914Y007682D01*
X-004912Y007684D01*
X-004910Y007686D01*
X-004903Y007690D01*
X-004895Y007693D01*
X-004894D01*
X-004892Y007694D01*
X-004890Y007694D01*
X-004885Y007696D01*
X-004881Y007696D01*
X-004874Y007698D01*
X-004868Y007698D01*
X-004860Y007700D01*
X-004859D01*
X-004856Y007700D01*
X-004852Y007701D01*
X-004847Y007701D01*
X-004841D01*
X-004835Y007702D01*
X-004822Y007703D01*
X-004809D01*
X-004802Y007702D01*
X-004793Y007701D01*
X-004784Y007700D01*
X-004776Y007698D01*
X-004769Y007696D01*
X-004768D01*
X-004767Y007696D01*
X-004764Y007694D01*
X-004760Y007692D01*
X-004756Y007689D01*
X-004756Y007687D01*
X-004754Y007686D01*
X-004753Y007684D01*
X-004751Y007681D01*
X-004749Y007678D01*
X-004747Y007673D01*
X-004743Y007668D01*
X-004682Y007554D01*
X-004681Y007553D01*
X-004680Y007551D01*
X-004679Y007547D01*
X-004676Y007544D01*
X-004671Y007536D01*
X-004669Y007533D01*
X-004668Y007530D01*
X-004667Y007530D01*
X-004665Y007528D01*
X-004662Y007527D01*
X-004657Y007527D01*
X-004656D01*
X-004653Y007527D01*
X-004650Y007528D01*
X-004646Y007531D01*
X-004645Y007532D01*
X-004643Y007535D01*
X-004640Y007540D01*
X-004638Y007543D01*
X-004636Y007547D01*
X-004594Y007630D01*
X-004593Y007630D01*
X-004592Y007632D01*
X-004591Y007635D01*
X-004589Y007638D01*
X-004586Y007645D01*
X-004585Y007648D01*
X-004583Y007650D01*
Y007651D01*
X-004583Y007652D01*
X-004581Y007655D01*
X-004578Y007660D01*
X-004574Y007666D01*
X-004570Y007673D01*
X-004564Y007679D01*
X-004559Y007685D01*
X-004554Y007690D01*
X-004553Y007690D01*
X-004550Y007692D01*
X-004546Y007694D01*
X-004539Y007696D01*
X-004530Y007699D01*
X-004518Y007701D01*
X-004512Y007701D01*
X-004505Y007702D01*
X-004496Y007703D01*
X-004480D01*
X-004475Y007702D01*
D02*
G37*
%LPC*%
G36*
X-006126Y007543D02*
X-006127D01*
X-006129Y007541D01*
X-006131Y007540D01*
X-006135Y007538D01*
X-006137Y007534D01*
X-006140Y007530D01*
X-006143Y007523D01*
Y007523D01*
X-006144Y007521D01*
X-006144Y007519D01*
X-006146Y007517D01*
X-006148Y007513D01*
X-006149Y007508D01*
X-006152Y007502D01*
X-006153Y007501D01*
X-006154Y007497D01*
X-006156Y007492D01*
X-006158Y007486D01*
X-006161Y007480D01*
X-006162Y007474D01*
X-006164Y007469D01*
X-006164Y007466D01*
Y007464D01*
X-006162Y007462D01*
X-006161Y007460D01*
X-006159Y007459D01*
X-006155Y007458D01*
X-006151Y007458D01*
X-006090D01*
X-006087Y007458D01*
X-006084D01*
X-006081Y007460D01*
X-006079Y007461D01*
X-006077Y007462D01*
X-006076Y007465D01*
Y007466D01*
Y007467D01*
X-006078Y007470D01*
X-006079Y007475D01*
X-006081Y007481D01*
X-006085Y007490D01*
X-006091Y007501D01*
X-006094Y007506D01*
X-006098Y007514D01*
X-006099Y007514D01*
X-006100Y007516D01*
X-006102Y007519D01*
X-006104Y007523D01*
X-006109Y007531D01*
X-006112Y007534D01*
X-006115Y007537D01*
X-006115Y007538D01*
X-006118Y007540D01*
X-006122Y007542D01*
X-006126Y007543D01*
D02*
G37*
G36*
X-005196Y007619D02*
X-005200D01*
X-005205Y007618D01*
X-005211Y007617D01*
X-005217Y007614D01*
X-005224Y007610D01*
X-005230Y007604D01*
X-005236Y007597D01*
X-005236Y007596D01*
X-005238Y007594D01*
X-005239Y007591D01*
X-005241Y007586D01*
X-005244Y007580D01*
X-005245Y007573D01*
X-005246Y007566D01*
X-005247Y007558D01*
Y007557D01*
Y007556D01*
Y007554D01*
Y007552D01*
X-005246Y007549D01*
Y007545D01*
X-005245Y007535D01*
X-005244Y007524D01*
X-005241Y007510D01*
X-005238Y007495D01*
X-005233Y007479D01*
Y007479D01*
X-005233Y007477D01*
X-005232Y007475D01*
X-005231Y007472D01*
X-005229Y007468D01*
X-005228Y007464D01*
X-005224Y007453D01*
X-005219Y007441D01*
X-005213Y007427D01*
X-005206Y007414D01*
X-005199Y007401D01*
X-005198Y007400D01*
X-005197Y007398D01*
X-005195Y007396D01*
X-005192Y007392D01*
X-005185Y007385D01*
X-005176Y007377D01*
X-005176Y007377D01*
X-005174Y007376D01*
X-005171Y007375D01*
X-005168Y007374D01*
X-005163Y007372D01*
X-005159Y007370D01*
X-005154Y007370D01*
X-005148Y007369D01*
X-005144D01*
X-005141Y007370D01*
X-005135Y007371D01*
X-005130Y007373D01*
X-005124Y007376D01*
X-005117Y007380D01*
X-005112Y007386D01*
X-005111Y007387D01*
X-005110Y007389D01*
X-005107Y007393D01*
X-005105Y007398D01*
X-005102Y007404D01*
X-005100Y007412D01*
X-005098Y007421D01*
X-005098Y007431D01*
Y007431D01*
Y007433D01*
Y007434D01*
Y007437D01*
X-005098Y007440D01*
Y007444D01*
X-005099Y007454D01*
X-005100Y007466D01*
X-005103Y007479D01*
X-005106Y007493D01*
X-005109Y007508D01*
Y007509D01*
X-005110Y007510D01*
X-005111Y007512D01*
X-005111Y007516D01*
X-005113Y007519D01*
X-005114Y007523D01*
X-005118Y007533D01*
X-005122Y007544D01*
X-005127Y007556D01*
X-005133Y007568D01*
X-005140Y007580D01*
X-005141Y007580D01*
X-005142Y007583D01*
X-005144Y007586D01*
X-005147Y007590D01*
X-005151Y007595D01*
X-005155Y007599D01*
X-005161Y007604D01*
X-005166Y007608D01*
X-005166Y007609D01*
X-005168Y007610D01*
X-005172Y007611D01*
X-005175Y007613D01*
X-005180Y007615D01*
X-005185Y007617D01*
X-005190Y007619D01*
X-005196Y007619D01*
D02*
G37*
%LPD*%
D26*
X-014500Y002000D02*
X-012500Y000000D01*
X000000D01*
Y008000D01*
X-012500D02*
X000000D01*
X-014500Y006000D02*
X-012500Y008000D01*
X-014500Y002000D02*
Y006000D01*
D34*
X-007161Y005870D02*
G03*
X-007161Y005870I-000049J000000D01*
G01*
D35*
X-013770Y006295D02*
X-013537D01*
X-013653Y006412D02*
Y006178D01*
X-013770Y001685D02*
X-013537D01*
D36*
X-009460Y006080D02*
Y005880D01*
X-009360D01*
X-009327Y005913D01*
Y005947D01*
X-009360Y005980D01*
X-009460D01*
X-009360D01*
X-009327Y006013D01*
Y006047D01*
X-009360Y006080D01*
X-009460D01*
X-009160D02*
X-009227D01*
X-009260Y006047D01*
Y005913D01*
X-009227Y005880D01*
X-009160D01*
X-009127Y005913D01*
Y006047D01*
X-009160Y006080D01*
X-008960D02*
X-009027D01*
X-009060Y006047D01*
Y005913D01*
X-009027Y005880D01*
X-008960D01*
X-008927Y005913D01*
Y006047D01*
X-008960Y006080D01*
X-008860D02*
X-008727D01*
X-008794D01*
Y005880D01*
X-009460Y006370D02*
Y006570D01*
X-009360D01*
X-009327Y006537D01*
Y006470D01*
X-009360Y006437D01*
X-009460D01*
X-009260Y006570D02*
Y006370D01*
X-009193Y006437D01*
X-009127Y006370D01*
Y006570D01*
X-009060Y006370D02*
Y006570D01*
X-008960D01*
X-008927Y006537D01*
Y006470D01*
X-008960Y006437D01*
X-009060D01*
X-008993D02*
X-008927Y006370D01*
X-012360Y006770D02*
Y006970D01*
X-012260D01*
X-012227Y006937D01*
Y006870D01*
X-012260Y006837D01*
X-012360D01*
X-012027Y006970D02*
X-012160D01*
Y006770D01*
X-012027D01*
X-012160Y006870D02*
X-012093D01*
X-011827Y006970D02*
X-011893Y006937D01*
X-011960Y006870D01*
Y006803D01*
X-011927Y006770D01*
X-011860D01*
X-011827Y006803D01*
Y006837D01*
X-011860Y006870D01*
X-011960D01*
X-011360Y006770D02*
Y006970D01*
X-011260D01*
X-011227Y006937D01*
Y006870D01*
X-011260Y006837D01*
X-011360D01*
X-011027Y006970D02*
X-011160D01*
Y006870D01*
X-011093D01*
X-011160D01*
Y006770D01*
X-010960Y006937D02*
X-010927Y006970D01*
X-010860D01*
X-010827Y006937D01*
Y006803D01*
X-010860Y006770D01*
X-010927D01*
X-010960Y006803D01*
Y006937D01*
X-010330Y006770D02*
Y006970D01*
X-010230D01*
X-010197Y006937D01*
Y006870D01*
X-010230Y006837D01*
X-010330D01*
X-009997Y006970D02*
X-010130D01*
Y006870D01*
X-010063D01*
X-010130D01*
Y006770D01*
X-009930D02*
X-009863D01*
X-009897D01*
Y006970D01*
X-009930Y006937D01*
X-009350Y006770D02*
Y006970D01*
X-009250D01*
X-009217Y006937D01*
Y006870D01*
X-009250Y006837D01*
X-009350D01*
X-009017Y006970D02*
X-009150D01*
Y006870D01*
X-009083D01*
X-009150D01*
Y006770D01*
X-008850D02*
Y006970D01*
X-008950Y006870D01*
X-008817D01*
X-008370Y006770D02*
Y006970D01*
X-008270D01*
X-008237Y006937D01*
Y006870D01*
X-008270Y006837D01*
X-008370D01*
X-008037Y006970D02*
X-008170D01*
Y006870D01*
X-008103D01*
X-008170D01*
Y006770D01*
X-007837Y006970D02*
X-007970D01*
Y006870D01*
X-007903Y006903D01*
X-007870D01*
X-007837Y006870D01*
Y006803D01*
X-007870Y006770D01*
X-007937D01*
X-007970Y006803D01*
X-007340Y006770D02*
Y006970D01*
X-007240D01*
X-007207Y006937D01*
Y006870D01*
X-007240Y006837D01*
X-007340D01*
X-007007Y006970D02*
X-007140D01*
Y006870D01*
X-007073D01*
X-007140D01*
Y006770D01*
X-006807Y006970D02*
X-006873Y006937D01*
X-006940Y006870D01*
Y006803D01*
X-006907Y006770D01*
X-006840D01*
X-006807Y006803D01*
Y006837D01*
X-006840Y006870D01*
X-006940D01*
X-003870Y006770D02*
Y006970D01*
X-003770D01*
X-003737Y006937D01*
Y006870D01*
X-003770Y006837D01*
X-003870D01*
X-003537Y006970D02*
X-003670D01*
Y006870D01*
X-003603D01*
X-003670D01*
Y006770D01*
X-003470Y006970D02*
X-003337D01*
Y006937D01*
X-003470Y006803D01*
Y006770D01*
X-002840D02*
Y006970D01*
X-002740D01*
X-002707Y006937D01*
Y006870D01*
X-002740Y006837D01*
X-002840D01*
X-002507Y006970D02*
X-002640D01*
Y006770D01*
X-002507D01*
X-002640Y006870D02*
X-002573D01*
X-002307Y006770D02*
X-002440D01*
X-002307Y006903D01*
Y006937D01*
X-002340Y006970D01*
X-002407D01*
X-002440Y006937D01*
X-001860Y006770D02*
Y006970D01*
X-001760D01*
X-001727Y006937D01*
Y006870D01*
X-001760Y006837D01*
X-001860D01*
X-001527Y006937D02*
X-001560Y006970D01*
X-001627D01*
X-001660Y006937D01*
Y006803D01*
X-001627Y006770D01*
X-001560D01*
X-001527Y006803D01*
X-001460Y006970D02*
X-001327D01*
Y006937D01*
X-001460Y006803D01*
Y006770D01*
X-000860D02*
Y006970D01*
X-000760D01*
X-000727Y006937D01*
Y006870D01*
X-000760Y006837D01*
X-000860D01*
X-000527Y006937D02*
X-000560Y006970D01*
X-000627D01*
X-000660Y006937D01*
Y006803D01*
X-000627Y006770D01*
X-000560D01*
X-000527Y006803D01*
X-000327Y006970D02*
X-000393Y006937D01*
X-000460Y006870D01*
Y006803D01*
X-000427Y006770D01*
X-000360D01*
X-000327Y006803D01*
Y006837D01*
X-000360Y006870D01*
X-000460D01*
X-001660Y005870D02*
Y006070D01*
X-001560D01*
X-001527Y006037D01*
Y005970D01*
X-001560Y005937D01*
X-001660D01*
X-001460Y006070D02*
Y005870D01*
X-001360D01*
X-001327Y005903D01*
Y005937D01*
X-001360Y005970D01*
X-001460D01*
X-001360D01*
X-001327Y006003D01*
Y006037D01*
X-001360Y006070D01*
X-001460D01*
X-001127D02*
X-001193Y006037D01*
X-001260Y005970D01*
Y005903D01*
X-001227Y005870D01*
X-001160D01*
X-001127Y005903D01*
Y005937D01*
X-001160Y005970D01*
X-001260D01*
X-001660Y004870D02*
Y005070D01*
X-001560D01*
X-001527Y005037D01*
Y004970D01*
X-001560Y004937D01*
X-001660D01*
X-001460Y005070D02*
Y004870D01*
X-001360D01*
X-001327Y004903D01*
Y004937D01*
X-001360Y004970D01*
X-001460D01*
X-001360D01*
X-001327Y005003D01*
Y005037D01*
X-001360Y005070D01*
X-001460D01*
X-001127D02*
X-001260D01*
Y004970D01*
X-001193Y005003D01*
X-001160D01*
X-001127Y004970D01*
Y004903D01*
X-001160Y004870D01*
X-001227D01*
X-001260Y004903D01*
X-001660Y003920D02*
Y004120D01*
X-001560D01*
X-001527Y004087D01*
Y004020D01*
X-001560Y003987D01*
X-001660D01*
X-001460Y004120D02*
Y003920D01*
X-001360D01*
X-001327Y003953D01*
Y003987D01*
X-001360Y004020D01*
X-001460D01*
X-001360D01*
X-001327Y004053D01*
Y004087D01*
X-001360Y004120D01*
X-001460D01*
X-001160Y003920D02*
Y004120D01*
X-001260Y004020D01*
X-001127D01*
X-001660Y002920D02*
Y003120D01*
X-001560D01*
X-001527Y003087D01*
Y003020D01*
X-001560Y002987D01*
X-001660D01*
X-001460Y003120D02*
Y002920D01*
X-001360D01*
X-001327Y002953D01*
Y003087D01*
X-001360Y003120D01*
X-001460D01*
X-001260D02*
X-001127D01*
Y003087D01*
X-001260Y002953D01*
Y002920D01*
X-001660Y001920D02*
Y002120D01*
X-001560D01*
X-001527Y002087D01*
Y002020D01*
X-001560Y001987D01*
X-001660D01*
X-001460Y002120D02*
Y001920D01*
X-001360D01*
X-001327Y001953D01*
Y002087D01*
X-001360Y002120D01*
X-001460D01*
X-001127D02*
X-001193Y002087D01*
X-001260Y002020D01*
Y001953D01*
X-001227Y001920D01*
X-001160D01*
X-001127Y001953D01*
Y001987D01*
X-001160Y002020D01*
X-001260D01*
X-009120Y002420D02*
Y002620D01*
X-009020D01*
X-008987Y002587D01*
Y002520D01*
X-009020Y002487D01*
X-009120D01*
X-009053D02*
X-008987Y002420D01*
X-008787Y002587D02*
X-008820Y002620D01*
X-008887D01*
X-008920Y002587D01*
Y002553D01*
X-008887Y002520D01*
X-008820D01*
X-008787Y002487D01*
Y002453D01*
X-008820Y002420D01*
X-008887D01*
X-008920Y002453D01*
X-008720Y002620D02*
X-008587D01*
X-008653D01*
Y002420D01*
X-012370Y001070D02*
Y001270D01*
X-012270D01*
X-012237Y001237D01*
Y001170D01*
X-012270Y001137D01*
X-012370D01*
X-012170Y001270D02*
Y001070D01*
X-012070D01*
X-012037Y001103D01*
Y001137D01*
X-012070Y001170D01*
X-012170D01*
X-012070D01*
X-012037Y001203D01*
Y001237D01*
X-012070Y001270D01*
X-012170D01*
X-011970Y001237D02*
X-011937Y001270D01*
X-011870D01*
X-011837Y001237D01*
Y001103D01*
X-011870Y001070D01*
X-011937D01*
X-011970Y001103D01*
Y001237D01*
X-011370Y001070D02*
Y001270D01*
X-011270D01*
X-011237Y001237D01*
Y001170D01*
X-011270Y001137D01*
X-011370D01*
X-011170Y001270D02*
Y001070D01*
X-011070D01*
X-011037Y001103D01*
Y001137D01*
X-011070Y001170D01*
X-011170D01*
X-011070D01*
X-011037Y001203D01*
Y001237D01*
X-011070Y001270D01*
X-011170D01*
X-010970Y001070D02*
X-010903D01*
X-010937D01*
Y001270D01*
X-010970Y001237D01*
X-010370Y001070D02*
Y001270D01*
X-010270D01*
X-010237Y001237D01*
Y001170D01*
X-010270Y001137D01*
X-010370D01*
X-010170Y001270D02*
Y001070D01*
X-010070D01*
X-010037Y001103D01*
Y001137D01*
X-010070Y001170D01*
X-010170D01*
X-010070D01*
X-010037Y001203D01*
Y001237D01*
X-010070Y001270D01*
X-010170D01*
X-009837Y001070D02*
X-009970D01*
X-009837Y001203D01*
Y001237D01*
X-009870Y001270D01*
X-009937D01*
X-009970Y001237D01*
X-009370Y001070D02*
Y001270D01*
X-009270D01*
X-009237Y001237D01*
Y001170D01*
X-009270Y001137D01*
X-009370D01*
X-009170Y001270D02*
Y001070D01*
X-009070D01*
X-009037Y001103D01*
Y001137D01*
X-009070Y001170D01*
X-009170D01*
X-009070D01*
X-009037Y001203D01*
Y001237D01*
X-009070Y001270D01*
X-009170D01*
X-008970Y001237D02*
X-008937Y001270D01*
X-008870D01*
X-008837Y001237D01*
Y001203D01*
X-008870Y001170D01*
X-008903D01*
X-008870D01*
X-008837Y001137D01*
Y001103D01*
X-008870Y001070D01*
X-008937D01*
X-008970Y001103D01*
X-008370Y001070D02*
Y001270D01*
X-008270D01*
X-008237Y001237D01*
Y001170D01*
X-008270Y001137D01*
X-008370D01*
X-008170Y001270D02*
Y001070D01*
X-008070D01*
X-008037Y001103D01*
Y001137D01*
X-008070Y001170D01*
X-008170D01*
X-008070D01*
X-008037Y001203D01*
Y001237D01*
X-008070Y001270D01*
X-008170D01*
X-007970D02*
X-007837D01*
Y001237D01*
X-007970Y001103D01*
Y001070D01*
X-007320D02*
Y001270D01*
X-007220D01*
X-007187Y001237D01*
Y001170D01*
X-007220Y001137D01*
X-007320D01*
X-007120Y001270D02*
Y001070D01*
X-007020D01*
X-006987Y001103D01*
Y001237D01*
X-007020Y001270D01*
X-007120D01*
X-006920Y001237D02*
X-006887Y001270D01*
X-006820D01*
X-006787Y001237D01*
Y001103D01*
X-006820Y001070D01*
X-006887D01*
X-006920Y001103D01*
Y001237D01*
X-006320Y001070D02*
Y001270D01*
X-006220D01*
X-006187Y001237D01*
Y001170D01*
X-006220Y001137D01*
X-006320D01*
X-006120Y001270D02*
Y001070D01*
X-006020D01*
X-005987Y001103D01*
Y001237D01*
X-006020Y001270D01*
X-006120D01*
X-005920Y001070D02*
X-005853D01*
X-005887D01*
Y001270D01*
X-005920Y001237D01*
X-003870Y001070D02*
Y001270D01*
X-003770D01*
X-003737Y001237D01*
Y001170D01*
X-003770Y001137D01*
X-003870D01*
X-003670Y001270D02*
Y001070D01*
X-003570D01*
X-003537Y001103D01*
Y001237D01*
X-003570Y001270D01*
X-003670D01*
X-003337Y001070D02*
X-003470D01*
X-003337Y001203D01*
Y001237D01*
X-003370Y001270D01*
X-003437D01*
X-003470Y001237D01*
X-002870Y001070D02*
Y001270D01*
X-002770D01*
X-002737Y001237D01*
Y001170D01*
X-002770Y001137D01*
X-002870D01*
X-002670Y001270D02*
Y001070D01*
X-002570D01*
X-002537Y001103D01*
Y001237D01*
X-002570Y001270D01*
X-002670D01*
X-002470Y001237D02*
X-002437Y001270D01*
X-002370D01*
X-002337Y001237D01*
Y001203D01*
X-002370Y001170D01*
X-002403D01*
X-002370D01*
X-002337Y001137D01*
Y001103D01*
X-002370Y001070D01*
X-002437D01*
X-002470Y001103D01*
X-001870Y001070D02*
Y001270D01*
X-001770D01*
X-001737Y001237D01*
Y001170D01*
X-001770Y001137D01*
X-001870D01*
X-001670Y001270D02*
Y001070D01*
X-001570D01*
X-001537Y001103D01*
Y001237D01*
X-001570Y001270D01*
X-001670D01*
X-001370Y001070D02*
Y001270D01*
X-001470Y001170D01*
X-001337D01*
X-000870Y001070D02*
Y001270D01*
X-000770D01*
X-000737Y001237D01*
Y001170D01*
X-000770Y001137D01*
X-000870D01*
X-000670Y001270D02*
Y001070D01*
X-000570D01*
X-000537Y001103D01*
Y001237D01*
X-000570Y001270D01*
X-000670D01*
X-000337D02*
X-000470D01*
Y001170D01*
X-000403Y001203D01*
X-000370D01*
X-000337Y001170D01*
Y001103D01*
X-000370Y001070D01*
X-000437D01*
X-000470Y001103D01*
M02*
