G04 Layer_Color=20142*
%FSAX24Y24*%
%MOIN*%
G70*
G01*
G75*
%ADD26C,0.0100*%
%ADD37R,0.0395X0.0395*%
%ADD38R,0.0434X0.0454*%
%ADD39R,0.0356X0.0415*%
%ADD40R,0.0316X0.0395*%
%ADD41R,0.0230X0.0580*%
%ADD42R,0.0580X0.0230*%
%ADD43R,0.0433X0.0433*%
%ADD44R,0.0630X0.0571*%
%ADD45R,0.0591X0.0630*%
%ADD46R,0.0748X0.0197*%
%ADD47R,0.0474X0.0493*%
%ADD48R,0.0434X0.0493*%
%ADD49R,0.0310X0.0700*%
G04:AMPARAMS|DCode=50|XSize=47.4mil|YSize=31.6mil|CornerRadius=6.4mil|HoleSize=0mil|Usage=FLASHONLY|Rotation=90.000|XOffset=0mil|YOffset=0mil|HoleType=Round|Shape=RoundedRectangle|*
%AMROUNDEDRECTD50*
21,1,0.0474,0.0189,0,0,90.0*
21,1,0.0346,0.0316,0,0,90.0*
1,1,0.0127,0.0094,0.0173*
1,1,0.0127,0.0094,-0.0173*
1,1,0.0127,-0.0094,-0.0173*
1,1,0.0127,-0.0094,0.0173*
%
%ADD50ROUNDEDRECTD50*%
%ADD51R,0.0493X0.0474*%
%ADD52R,0.0513X0.0789*%
%ADD53C,0.0780*%
%ADD54C,0.0350*%
D26*
X-014500Y002000D02*
X-012500Y000000D01*
X000000D01*
Y008000D01*
X-012500D02*
X000000D01*
X-014500Y006000D02*
X-012500Y008000D01*
X-014500Y002000D02*
Y006000D01*
D37*
X-011435Y006480D02*
D03*
X-010845D02*
D03*
D38*
X-010273Y001850D02*
D03*
X-010707D02*
D03*
D39*
X-010266Y005950D02*
D03*
X-009774D02*
D03*
X-010266Y006470D02*
D03*
X-009774D02*
D03*
D40*
X-010865Y005960D02*
D03*
X-011435D02*
D03*
D41*
X-006575Y006205D02*
D03*
X-006260D02*
D03*
X-005945D02*
D03*
X-005630D02*
D03*
X-005315D02*
D03*
X-005000D02*
D03*
X-004685D02*
D03*
X-004370D02*
D03*
X-004055D02*
D03*
X-003740D02*
D03*
X-003425D02*
D03*
Y001795D02*
D03*
X-003740D02*
D03*
X-004055D02*
D03*
X-004370D02*
D03*
X-004685D02*
D03*
X-005000D02*
D03*
X-005315D02*
D03*
X-005630D02*
D03*
X-005945D02*
D03*
X-006260D02*
D03*
X-006575D02*
D03*
D42*
X-002795Y005575D02*
D03*
Y005260D02*
D03*
Y004945D02*
D03*
Y004630D02*
D03*
Y004315D02*
D03*
Y004000D02*
D03*
Y003685D02*
D03*
Y003370D02*
D03*
Y003055D02*
D03*
Y002740D02*
D03*
Y002425D02*
D03*
X-007205D02*
D03*
Y002740D02*
D03*
Y003055D02*
D03*
Y003370D02*
D03*
Y003685D02*
D03*
Y004000D02*
D03*
Y004315D02*
D03*
Y004630D02*
D03*
Y004945D02*
D03*
Y005260D02*
D03*
Y005575D02*
D03*
D43*
X-013200Y003606D02*
D03*
Y004394D02*
D03*
D44*
Y005604D02*
D03*
Y002396D02*
D03*
D45*
X-012137Y005280D02*
D03*
Y002720D02*
D03*
D46*
X-012070Y004512D02*
D03*
Y004256D02*
D03*
Y004000D02*
D03*
Y003744D02*
D03*
Y003488D02*
D03*
D47*
X-002050Y002145D02*
D03*
Y002735D02*
D03*
D03*
Y002145D02*
D03*
D48*
X-008255Y001840D02*
D03*
X-008825D02*
D03*
D49*
X-004370Y000630D02*
D03*
X-004850D02*
D03*
X-005322D02*
D03*
D50*
X-008087Y004300D02*
D03*
X-008713D02*
D03*
X-008087Y005000D02*
D03*
X-008713D02*
D03*
D51*
X-005165Y006900D02*
D03*
X-005755D02*
D03*
D52*
X-009500Y002800D02*
D03*
Y005241D02*
D03*
X-010957D02*
D03*
Y002800D02*
D03*
D53*
X-013000Y006500D02*
D03*
Y001500D02*
D03*
X-012100Y007450D02*
D03*
X-008100Y000550D02*
D03*
X-009100D02*
D03*
X-010100D02*
D03*
X-011100D02*
D03*
X-012100D02*
D03*
X-007050D02*
D03*
X-006100D02*
D03*
X-003600D02*
D03*
X-002600D02*
D03*
X-001600D02*
D03*
X-000600D02*
D03*
X-011100Y007450D02*
D03*
X-010100D02*
D03*
X-009100D02*
D03*
X-008100D02*
D03*
X-007100D02*
D03*
X-003600D02*
D03*
X-002600D02*
D03*
X-001600D02*
D03*
X-000600D02*
D03*
Y006000D02*
D03*
Y005000D02*
D03*
Y004000D02*
D03*
Y003000D02*
D03*
Y002000D02*
D03*
D54*
X-010460Y003330D02*
D03*
X-010020Y004920D02*
D03*
X-011990Y006460D02*
D03*
X-010030Y002750D02*
D03*
X-011630Y001980D02*
D03*
X-008500Y005860D02*
D03*
X-009550Y001830D02*
D03*
X-008822Y005575D02*
D03*
X-006575Y005425D02*
D03*
X-007750Y002200D02*
D03*
Y002600D02*
D03*
Y003000D02*
D03*
Y003400D02*
D03*
X-003350Y005650D02*
D03*
X-010350Y005200D02*
D03*
X-002800Y002050D02*
D03*
X-004150Y002450D02*
D03*
X-003750Y002350D02*
D03*
X-003650Y003053D02*
D03*
X-004590Y006890D02*
D03*
X-003750Y005400D02*
D03*
X-008550Y003700D02*
D03*
X-011450Y004800D02*
D03*
X-010950Y003750D02*
D03*
X-004980Y002470D02*
D03*
X-004100Y002850D02*
D03*
X-004560Y002590D02*
D03*
X-009490Y004580D02*
D03*
X-006140Y005240D02*
D03*
X-005630Y005270D02*
D03*
X-004980Y005310D02*
D03*
X-004340Y005350D02*
D03*
X-004680Y005580D02*
D03*
X-005320Y005610D02*
D03*
X-005940D02*
D03*
X-006630Y003670D02*
D03*
X-006600Y004090D02*
D03*
X-007530Y005950D02*
D03*
X-005940Y002500D02*
D03*
X-005520Y002320D02*
D03*
X-005080Y001220D02*
D03*
M02*
